<svg id="assign-white" xmlns="http://www.w3.org/2000/svg" width="12" height="16.819" viewBox="0 0 12 16.819">
  <path id="Path_38524" data-name="Path 38524" d="M243.544,1.385A1.311,1.311,0,1,1,242.233,2.7a1.313,1.313,0,0,1,1.311-1.311m0-1.385a2.7,2.7,0,1,0,2.7,2.7,2.7,2.7,0,0,0-2.7-2.7" transform="translate(-238.131 0)" fill="#fff"/>
  <path id="Path_38525" data-name="Path 38525" d="M150.934,224.514a.764.764,0,0,1-.691-.784l-.019-4.618a5.226,5.226,0,0,1,5.411-5.006,5.454,5.454,0,0,1,5.011,3.168.692.692,0,1,1-1.271.546,4.052,4.052,0,0,0-3.74-2.329,3.846,3.846,0,0,0-4.029,3.619l.019,4.616a.779.779,0,0,1-.688.79Z" transform="translate(-150.223 -207.695)" fill="#fff"/>
  <path id="Path_38526" data-name="Path 38526" d="M312.433,433.779H306.56a.626.626,0,0,1-.692-.608.781.781,0,0,1,.692-.788h5.955a.781.781,0,0,1,.692.788c0,.382-.31.608-.775.608Z" transform="translate(-301.208 -419.405)" fill="#fff"/>
  <path id="Path_38527" data-name="Path 38527" d="M303.9,369.308l-2.038-2.162a.687.687,0,0,1,0-.949l2.038-2.162a.692.692,0,1,1,1.005.95l-1.588,1.685,1.588,1.687a.7.7,0,0,1-.028.978A.711.711,0,0,1,303.9,369.308Z" transform="translate(-297.127 -352.902)" fill="#fff"/>
</svg>
