<svg xmlns="http://www.w3.org/2000/svg" width="12.023" height="16.851" viewBox="0 0 12.023 16.851">
  <g id="assign-icon" transform="translate(-150.223 0)">
    <path id="Path_38524" data-name="Path 38524" d="M243.544,1.385A1.311,1.311,0,1,1,242.233,2.7a1.313,1.313,0,0,1,1.311-1.311m0-1.385a2.7,2.7,0,1,0,2.7,2.7,2.7,2.7,0,0,0-2.7-2.7" transform="translate(-87.897)" fill="#6e6e6e"/>
    <path id="Path_38525" data-name="Path 38525" d="M150.935,224.514a.764.764,0,0,1-.692-.784l-.019-4.618a5.232,5.232,0,0,1,5.423-5.006,5.467,5.467,0,0,1,5.023,3.168.693.693,0,1,1-1.274.546,4.062,4.062,0,0,0-3.749-2.329,3.851,3.851,0,0,0-4.038,3.619l.019,4.616a.779.779,0,0,1-.69.79Z" transform="translate(0 -207.662)" fill="#6e6e6e"/>
    <path id="Path_38526" data-name="Path 38526" d="M312.433,433.779H306.56a.626.626,0,0,1-.692-.608.781.781,0,0,1,.692-.788h5.955a.781.781,0,0,1,.692.788c0,.382-.31.608-.775.608Z" transform="translate(-150.961 -419.372)" fill="#6e6e6e"/>
    <path id="Path_38527" data-name="Path 38527" d="M303.9,369.308l-2.038-2.162a.687.687,0,0,1,0-.949l2.038-2.162a.692.692,0,1,1,1.005.95l-1.588,1.685,1.588,1.687a.7.7,0,0,1-.028.978A.711.711,0,0,1,303.9,369.308Z" transform="translate(-146.891 -352.869)" fill="#6e6e6e"/>
  </g>
</svg>
