<svg id="back-arrow" xmlns="http://www.w3.org/2000/svg" width="42.137" height="42.137" viewBox="0 0 42.137 42.137">
  <g id="Group_8626" data-name="Group 8626">
    <g id="Component_49_1" data-name="Component 49 – 1">
      <g id="Path_38542" data-name="Path 38542" fill="#eb9852">
        <path d="M 21.068359375 41.63671875 C 18.29142951965332 41.63671875 15.59782981872559 41.09296798706055 13.06237983703613 40.02056121826172 C 10.61316967010498 38.98463821411133 8.413459777832031 37.50151062011719 6.52432918548584 35.61238861083984 C 4.635209560394287 33.72327041625977 3.152089357376099 31.52355003356934 2.116159439086914 29.07433891296387 C 1.043749332427979 26.53888893127441 0.4999993741512299 23.84528923034668 0.4999993741512299 21.068359375 C 0.4999993741512299 18.29142951965332 1.043749332427979 15.59782981872559 2.116159439086914 13.06237983703613 C 3.152089357376099 10.61317920684814 4.635209560394287 8.413459777832031 6.52432918548584 6.52432918548584 C 8.413459777832031 4.635209560394287 10.61317920684814 3.152089357376099 13.06237983703613 2.116159439086914 C 15.59782981872559 1.043749332427979 18.29142951965332 0.4999993741512299 21.068359375 0.4999993741512299 C 23.84528923034668 0.4999993741512299 26.53888893127441 1.043749332427979 29.07433891296387 2.116159439086914 C 31.52355003356934 3.152089357376099 33.72327041625977 4.635209560394287 35.61238861083984 6.52432918548584 C 37.50151062011719 8.413459777832031 38.98463821411133 10.61316967010498 40.02056121826172 13.06237983703613 C 41.09296798706055 15.59782981872559 41.63671875 18.29142951965332 41.63671875 21.068359375 C 41.63671875 23.84528923034668 41.09296798706055 26.53888893127441 40.02056121826172 29.07433891296387 C 38.98463821411133 31.52355003356934 37.50151062011719 33.72327041625977 35.61238861083984 35.61238861083984 C 33.72327041625977 37.50151062011719 31.52355003356934 38.98463821411133 29.07433891296387 40.02056121826172 C 26.53888893127441 41.09296798706055 23.84528923034668 41.63671875 21.068359375 41.63671875 Z" stroke="none"/>
        <path d="M 21.068359375 1 C 18.35870933532715 1 15.73063850402832 1.530460357666016 13.25714874267578 2.57666015625 C 10.86754989624023 3.587379455566406 8.721248626708984 5.034519195556641 6.877880096435547 6.877880096435547 C 5.034519195556641 8.721248626708984 3.587379455566406 10.86754989624023 2.57666015625 13.25714874267578 C 1.530460357666016 15.73063850402832 1 18.35870933532715 1 21.068359375 C 1 23.77800941467285 1.530460357666016 26.40607833862305 2.57666015625 28.87955856323242 C 3.587379455566406 31.26916885375977 5.034519195556641 33.41547012329102 6.877880096435547 35.25883102416992 C 8.721248626708984 37.10219955444336 10.86754989624023 38.54933929443359 13.25714874267578 39.56005859375 C 15.73063850402832 40.60625076293945 18.35870933532715 41.13671875 21.068359375 41.13671875 C 23.77800941467285 41.13671875 26.40607833862305 40.60625076293945 28.87955856323242 39.56005859375 C 31.26916885375977 38.54933929443359 33.41547012329102 37.10219955444336 35.25883102416992 35.25883102416992 C 37.10219955444336 33.41547012329102 38.54933929443359 31.26916885375977 39.56005859375 28.87955856323242 C 40.60625076293945 26.40607833862305 41.13671875 23.77800941467285 41.13671875 21.068359375 C 41.13671875 18.35870933532715 40.60625076293945 15.73063850402832 39.56005859375 13.25714874267578 C 38.54933929443359 10.86754989624023 37.10219955444336 8.721248626708984 35.25883102416992 6.877880096435547 C 33.41547012329102 5.034519195556641 31.26916885375977 3.587379455566406 28.87955856323242 2.57666015625 C 26.40607833862305 1.530460357666016 23.77800941467285 1 21.068359375 1 M 21.068359375 0 C 32.7040901184082 0 42.13671875 9.432621002197266 42.13671875 21.068359375 C 42.13671875 32.7040901184082 32.7040901184082 42.13671875 21.068359375 42.13671875 C 9.432621002197266 42.13671875 0 32.7040901184082 0 21.068359375 C 0 9.432621002197266 9.432621002197266 0 21.068359375 0 Z" stroke="none" fill="#e2e2e2"/>
      </g>
    </g>
    <g id="noun-left-arrow-469246" transform="translate(14.386 14.396)">
      <path id="noun-left-arrow-469246-2" data-name="noun-left-arrow-469246" d="M126.989,48.125h-9.741l4.584-4.584a.574.574,0,0,0-.812-.812l-5.539,5.587a.531.531,0,0,0-.143.621c.048.048.048.143.1.191l5.587,5.539a.581.581,0,0,0,.764,0,.55.55,0,0,0,0-.812L117.2,49.271h9.741a.552.552,0,0,0,.573-.573.54.54,0,0,0-.525-.573Z" transform="translate(-115.302 -42.55)" fill="#fff" stroke="#fff" stroke-width="1"/>
    </g>
  </g>
</svg>
