<svg xmlns="http://www.w3.org/2000/svg" width="57" height="57" viewBox="0 0 57 57">
  <g id="care-takers" transform="translate(-361.758 -167.758)">
    <g id="Path_38459" data-name="Path 38459" transform="translate(361.758 167.758)" fill="#eb9852">
      <path d="M 28.5 56.5 C 24.71980094909668 56.5 21.05294990539551 55.75975036621094 17.60128974914551 54.29983139038086 C 14.26712989807129 52.88959884643555 11.27264022827148 50.87062072753906 8.701009750366211 48.29898834228516 C 6.129380226135254 45.72735977172852 4.110410213470459 42.73286819458008 2.700170040130615 39.39870834350586 C 1.240249991416931 35.94704818725586 0.5 32.28020095825195 0.5 28.5 C 0.5 24.71981048583984 1.240249991416931 21.05294990539551 2.700170040130615 17.60128974914551 C 4.110410213470459 14.26712989807129 6.129380226135254 11.27264976501465 8.701009750366211 8.701009750366211 C 11.27264976501465 6.129380226135254 14.26712989807129 4.110410213470459 17.60128974914551 2.700170040130615 C 21.05294990539551 1.240249991416931 24.71981048583984 0.5 28.5 0.5 C 32.28020095825195 0.5 35.94704818725586 1.240249991416931 39.39870834350586 2.700170040130615 C 42.73286819458008 4.110410213470459 45.72735977172852 6.129380226135254 48.29898834228516 8.701009750366211 C 50.87062072753906 11.27264022827148 52.88959884643555 14.26712989807129 54.29983139038086 17.60128974914551 C 55.75975036621094 21.05294990539551 56.5 24.71980094909668 56.5 28.5 C 56.5 32.28020095825195 55.75975036621094 35.94704818725586 54.29983139038086 39.39870834350586 C 52.88959884643555 42.73286819458008 50.87062072753906 45.72735977172852 48.29898834228516 48.29898834228516 C 45.72735977172852 50.87062072753906 42.73286819458008 52.88959884643555 39.39870834350586 54.29983139038086 C 35.94704818725586 55.75975036621094 32.28020095825195 56.5 28.5 56.5 Z" stroke="none"/>
      <path d="M 28.5 1 C 24.78707885742188 1 21.18576049804688 1.726959228515625 17.79605865478516 3.160678863525391 C 14.52149963378906 4.545700073242188 11.58044052124023 6.528690338134766 9.054561614990234 9.054561614990234 C 6.528690338134766 11.58044052124023 4.545700073242188 14.52149963378906 3.160678863525391 17.79605865478516 C 1.726959228515625 21.18576049804688 1 24.78707885742188 1 28.5 C 1 32.21292114257812 1.726959228515625 35.81423950195312 3.160678863525391 39.20394134521484 C 4.545700073242188 42.47850036621094 6.528690338134766 45.41955947875977 9.054561614990234 47.94544219970703 C 11.58044052124023 50.47130966186523 14.52149963378906 52.45429992675781 17.79605865478516 53.83932113647461 C 21.18576049804688 55.27304077148438 24.78707885742188 56 28.5 56 C 32.21292114257812 56 35.81423950195312 55.27304077148438 39.20394134521484 53.83932113647461 C 42.47850036621094 52.45429992675781 45.41955947875977 50.47130966186523 47.94544219970703 47.94544219970703 C 50.47130966186523 45.41955947875977 52.45429992675781 42.47850036621094 53.83932113647461 39.20394134521484 C 55.27304077148438 35.81423950195312 56 32.21292114257812 56 28.5 C 56 24.78707885742188 55.27304077148438 21.18576049804688 53.83932113647461 17.79605865478516 C 52.45429992675781 14.52149963378906 50.47130966186523 11.58044052124023 47.94544219970703 9.054561614990234 C 45.41955947875977 6.528690338134766 42.47850036621094 4.545700073242188 39.20394134521484 3.160678863525391 C 35.81423950195312 1.726959228515625 32.21292114257812 1 28.5 1 M 28.5 0 C 44.24011993408203 0 57 12.75988006591797 57 28.5 C 57 44.24011993408203 44.24011993408203 57 28.5 57 C 12.75988006591797 57 0 44.24011993408203 0 28.5 C 0 12.75988006591797 12.75988006591797 0 28.5 0 Z" stroke="none" fill="#db843a"/>
    </g>
    <g id="Group_8401" data-name="Group 8401" transform="translate(-3570.748 892.758)">
      <path id="Path_38459-2" data-name="Path 38459" d="M182.289,144.526a14.239,14.239,0,0,0,2.758.287,13.133,13.133,0,0,0,1.522-.086l.172-1.292a2.975,2.975,0,0,1,.977-1.9,2.021,2.021,0,0,0-1.034-.977,3.166,3.166,0,0,1-1.608.46,3.088,3.088,0,0,1-1.608-.46,2.15,2.15,0,0,0-1.264,1.723l-.258,1.752a.469.469,0,0,0,.345.488Z" transform="translate(3771.054 -843.306)" fill="#fff"/>
      <path id="Path_38460" data-name="Path 38460" d="M207.359,50.2a2.039,2.039,0,1,1-2.039-2.039,2.039,2.039,0,0,1,2.039,2.039" transform="translate(3750.741 -755.16)" fill="#fff"/>
      <path id="Path_38461" data-name="Path 38461" d="M406.562,144.162a13.139,13.139,0,0,0,1.522.086,14.224,14.224,0,0,0,2.757-.287.441.441,0,0,0,.345-.488l-.2-1.752A2.14,2.14,0,0,0,409.693,140a3.044,3.044,0,0,1-3.217,0,2.137,2.137,0,0,0-1.034.977,3.046,3.046,0,0,1,.977,1.9Z" transform="translate(3557.802 -842.766)" fill="#fff"/>
      <path id="Path_38462" data-name="Path 38462" d="M421.839,50.2A2.039,2.039,0,1,1,419.8,48.16a2.039,2.039,0,0,1,2.039,2.039" transform="translate(3546.179 -755.16)" fill="#fff"/>
      <path id="Path_38463" data-name="Path 38463" d="M371.28,460.377a.454.454,0,0,0,.46.46h4.28a.454.454,0,0,0,.46-.46v-2.3h-5.2Z" transform="translate(3590.436 -1146.044)" fill="#fff"/>
      <path id="Path_38464" data-name="Path 38464" d="M386.317,187.831a1.034,1.034,0,0,0-.689-.46.994.994,0,0,0-1.005.431l-1.924,2.671c.057.057.086.115.144.172a1.984,1.984,0,0,1-.144,2.384l-.144.144a20.323,20.323,0,0,1-2.528,2.442l-.747.6a.532.532,0,1,1-.661-.833l.747-.6a20.487,20.487,0,0,0,2.413-2.326l.144-.144a.906.906,0,0,0,.058-1.092.853.853,0,0,0-.574-.373.769.769,0,0,0-.661.144l-4.165,2.93a2.632,2.632,0,0,0-.977,1.321l-1.522,4.94h5.429l3.619-2.212a3,3,0,0,0,1.293-1.723l2.039-7.583A1.074,1.074,0,0,0,386.317,187.831Z" transform="translate(3587.019 -888.515)" fill="#fff"/>
      <path id="Path_38465" data-name="Path 38465" d="M94.922,196a2.516,2.516,0,0,0-.977-1.321l-4.107-2.9a.79.79,0,0,0-.661-.144.966.966,0,0,0-.574.373.906.906,0,0,0,.057,1.092l.144.144a20.568,20.568,0,0,0,2.413,2.326l.747.6a.532.532,0,0,1-.661.833l-.8-.6a20.287,20.287,0,0,1-2.528-2.442l-.144-.144a1.986,1.986,0,0,1-.144-2.384.758.758,0,0,1,.144-.172L85.9,188.591a1.009,1.009,0,0,0-.833-.431H84.9a.973.973,0,0,0-.689.46.986.986,0,0,0-.144.8l2.039,7.583A3,3,0,0,0,87.4,198.73l3.619,2.212h5.429Z" transform="translate(3864.469 -889.279)" fill="#fff"/>
      <path id="Path_38466" data-name="Path 38466" d="M227.36,460.377a.454.454,0,0,0,.46.46h4.28a.454.454,0,0,0,.46-.46v-2.3h-5.2Z" transform="translate(3727.738 -1146.044)" fill="#fff"/>
      <path id="Path_38467" data-name="Path 38467" d="M295.657,168.144l-.2-1.752a2.182,2.182,0,0,0-1.292-1.723,3.36,3.36,0,0,1-1.608.431,3.088,3.088,0,0,1-1.608-.46,2.241,2.241,0,0,0-1.292,1.723l-.2,1.752a.425.425,0,0,0,.345.488,14.237,14.237,0,0,0,2.757.287,12.294,12.294,0,0,0,2.757-.287.413.413,0,0,0,.345-.46Z" transform="translate(3668.451 -866.274)" fill="#fff"/>
      <path id="Path_38468" data-name="Path 38468" d="M314.315,74.841a2.039,2.039,0,1,1-2.039-2.039,2.039,2.039,0,0,1,2.039,2.039" transform="translate(3648.731 -778.538)" fill="#fff"/>
    </g>
  </g>
</svg>
