<svg xmlns="http://www.w3.org/2000/svg" width="57" height="57" viewBox="0 0 57 57">
  <g id="centers" transform="translate(-361.758 -167.758)">
    <g id="Path_38473" data-name="Path 38473" transform="translate(361.758 167.758)" fill="#eb9852">
      <path d="M 28.5 56.5 C 24.71980094909668 56.5 21.05294990539551 55.75975036621094 17.60128974914551 54.29983139038086 C 14.26712989807129 52.88959884643555 11.27264022827148 50.87062072753906 8.701009750366211 48.29898834228516 C 6.129380226135254 45.72735977172852 4.110410213470459 42.73286819458008 2.700170040130615 39.39870834350586 C 1.240249991416931 35.94704818725586 0.5 32.28020095825195 0.5 28.5 C 0.5 24.71981048583984 1.240249991416931 21.05294990539551 2.700170040130615 17.60128974914551 C 4.110410213470459 14.26712989807129 6.129380226135254 11.27264976501465 8.701009750366211 8.701009750366211 C 11.27264976501465 6.129380226135254 14.26712989807129 4.110410213470459 17.60128974914551 2.700170040130615 C 21.05294990539551 1.240249991416931 24.71981048583984 0.5 28.5 0.5 C 32.28020095825195 0.5 35.94704818725586 1.240249991416931 39.39870834350586 2.700170040130615 C 42.73286819458008 4.110410213470459 45.72735977172852 6.129380226135254 48.29898834228516 8.701009750366211 C 50.87062072753906 11.27264022827148 52.88959884643555 14.26712989807129 54.29983139038086 17.60128974914551 C 55.75975036621094 21.05294990539551 56.5 24.71980094909668 56.5 28.5 C 56.5 32.28020095825195 55.75975036621094 35.94704818725586 54.29983139038086 39.39870834350586 C 52.88959884643555 42.73286819458008 50.87062072753906 45.72735977172852 48.29898834228516 48.29898834228516 C 45.72735977172852 50.87062072753906 42.73286819458008 52.88959884643555 39.39870834350586 54.29983139038086 C 35.94704818725586 55.75975036621094 32.28020095825195 56.5 28.5 56.5 Z" stroke="none"/>
      <path d="M 28.5 1 C 24.78707885742188 1 21.18576049804688 1.726959228515625 17.79605865478516 3.160678863525391 C 14.52149963378906 4.545700073242188 11.58044052124023 6.528690338134766 9.054561614990234 9.054561614990234 C 6.528690338134766 11.58044052124023 4.545700073242188 14.52149963378906 3.160678863525391 17.79605865478516 C 1.726959228515625 21.18576049804688 1 24.78707885742188 1 28.5 C 1 32.21292114257812 1.726959228515625 35.81423950195312 3.160678863525391 39.20394134521484 C 4.545700073242188 42.47850036621094 6.528690338134766 45.41955947875977 9.054561614990234 47.94544219970703 C 11.58044052124023 50.47130966186523 14.52149963378906 52.45429992675781 17.79605865478516 53.83932113647461 C 21.18576049804688 55.27304077148438 24.78707885742188 56 28.5 56 C 32.21292114257812 56 35.81423950195312 55.27304077148438 39.20394134521484 53.83932113647461 C 42.47850036621094 52.45429992675781 45.41955947875977 50.47130966186523 47.94544219970703 47.94544219970703 C 50.47130966186523 45.41955947875977 52.45429992675781 42.47850036621094 53.83932113647461 39.20394134521484 C 55.27304077148438 35.81423950195312 56 32.21292114257812 56 28.5 C 56 24.78707885742188 55.27304077148438 21.18576049804688 53.83932113647461 17.79605865478516 C 52.45429992675781 14.52149963378906 50.47130966186523 11.58044052124023 47.94544219970703 9.054561614990234 C 45.41955947875977 6.528690338134766 42.47850036621094 4.545700073242188 39.20394134521484 3.160678863525391 C 35.81423950195312 1.726959228515625 32.21292114257812 1 28.5 1 M 28.5 0 C 44.24011993408203 0 57 12.75988006591797 57 28.5 C 57 44.24011993408203 44.24011993408203 57 28.5 57 C 12.75988006591797 57 0 44.24011993408203 0 28.5 C 0 12.75988006591797 12.75988006591797 0 28.5 0 Z" stroke="none" fill="#db843a"/>
    </g>
    <g id="Group_8403" data-name="Group 8403" transform="translate(-3642.638 1054.549)">
      <path id="Path_38473-2" data-name="Path 38473" d="M86.189,439.52h-4.81a.345.345,0,0,0-.35.35v4.81a.345.345,0,0,0,.35.35h4.81a.345.345,0,0,0,.35-.35v-4.81A.345.345,0,0,0,86.189,439.52Z" transform="translate(3939.368 -1290.355)" fill="#fff"/>
      <path id="Path_38474" data-name="Path 38474" d="M517.219,439.52h-4.81a.345.345,0,0,0-.35.35v4.81a.345.345,0,0,0,.35.35h4.81a.345.345,0,0,0,.35-.35v-4.81C517.525,439.651,517.394,439.52,517.219,439.52Z" transform="translate(3528.618 -1290.355)" fill="#fff"/>
      <path id="Path_38475" data-name="Path 38475" d="M301.709,439.52H296.9a.345.345,0,0,0-.35.35v4.81a.345.345,0,0,0,.35.35h4.81a.345.345,0,0,0,.35-.35v-4.81C302.015,439.651,301.884,439.52,301.709,439.52Z" transform="translate(3733.988 -1290.355)" fill="#fff"/>
      <path id="Path_38476" data-name="Path 38476" d="M128.33,334.817h9.649v1.837h.6v-1.837h9.489v1.837h.6v-2.143a.332.332,0,0,0-.32-.35h-9.769v-2.405a1.389,1.389,0,0,1-.6,0v2.405h-9.969a.331.331,0,0,0-.32.35v2.143h.6v-1.837Z" transform="translate(3895.112 -1187.621)" fill="#fff"/>
      <path id="Path_38477" data-name="Path 38477" d="M228.055,16.969a7.846,7.846,0,0,0-5.335,3.5h3.936a9.177,9.177,0,0,1,1.4-3.5Z" transform="translate(3804.348 -887.672)" fill="#fff"/>
      <path id="Path_38478" data-name="Path 38478" d="M228.863,253a8.533,8.533,0,0,1-1.356-3.542h-3.936A7.866,7.866,0,0,0,228.863,253Z" transform="translate(3803.538 -1109.141)" fill="#fff"/>
      <path id="Path_38479" data-name="Path 38479" d="M413.489,173.94h-4.81a16.883,16.883,0,0,1-.131,2.1,1.557,1.557,0,0,1,1.006,1.137h3.061a7.608,7.608,0,0,0,.875-3.236Z" transform="translate(3627.296 -1037.2)" fill="#fff"/>
      <path id="Path_38480" data-name="Path 38480" d="M314.681,253.937c.612,0,1.268-.962,1.749-2.536a1.67,1.67,0,0,1-.875-1.093h-2.886C313.194,252.8,314.025,253.937,314.681,253.937Z" transform="translate(3718.702 -1109.959)" fill="#fff"/>
      <path id="Path_38481" data-name="Path 38481" d="M383.3,249.449H380.63a1.591,1.591,0,0,1-1.53,1.268h-.044a7.386,7.386,0,0,1-1.049,2.274,8.065,8.065,0,0,0,5.291-3.542Z" transform="translate(3656.376 -1109.137)" fill="#fff"/>
      <path id="Path_38482" data-name="Path 38482" d="M379.772,73.816a.9.9,0,0,0-.918.918.918.918,0,1,0,.918-.918Z" transform="translate(3655.745 -941.589)" fill="#fff"/>
      <path id="Path_38483" data-name="Path 38483" d="M308.983,98.426H306.1c-.087.612-.175,1.224-.219,1.88a1.647,1.647,0,0,1,1.181,1.356h3.586c0-.7-.044-1.356-.087-2.012a1.611,1.611,0,0,1-1.574-1.224Z" transform="translate(3725.131 -965.27)" fill="#fff"/>
      <path id="Path_38484" data-name="Path 38484" d="M309.835,173.94h-3.673a1.621,1.621,0,0,1-1.137,1.049,16.647,16.647,0,0,0,.262,2.187H308.3a1.678,1.678,0,0,1,1.443-1.268c.044-.612.088-1.268.088-1.968Z" transform="translate(3725.942 -1037.2)" fill="#fff"/>
      <path id="Path_38485" data-name="Path 38485" d="M203.4,173.94h-3.586a8.243,8.243,0,0,0,.831,3.236h4.2a16.8,16.8,0,0,1-.219-2.187A1.521,1.521,0,0,1,203.4,173.94Z" transform="translate(3826.181 -1037.2)" fill="#fff"/>
      <path id="Path_38486" data-name="Path 38486" d="M204.628,99.456c.044-.656.131-1.268.219-1.88h-4.2a7.555,7.555,0,0,0-.831,3.236h3.542A1.527,1.527,0,0,1,204.628,99.456Z" transform="translate(3826.179 -964.46)" fill="#fff"/>
      <path id="Path_38487" data-name="Path 38487" d="M408.55,99.518a17.1,17.1,0,0,1,.131,2.143h4.766a8.242,8.242,0,0,0-.831-3.236h-3.149a1.638,1.638,0,0,1-.918,1.093Z" transform="translate(3627.296 -965.269)" fill="#fff"/>
      <path id="Path_38488" data-name="Path 38488" d="M280.379,147.84a.906.906,0,0,0,.918.787.9.9,0,0,0,.918-.918.924.924,0,0,0-.918-.918A.935.935,0,0,0,280.379,147.84Z" transform="translate(3749.527 -1011.31)" fill="#fff"/>
      <path id="Path_38489" data-name="Path 38489" d="M315.422,18.9a1.648,1.648,0,0,1,1.006-1.137c-.481-1.53-1.137-2.493-1.749-2.493-.656,0-1.487,1.137-2.012,3.63Z" transform="translate(3718.704 -886.061)" fill="#fff"/>
      <path id="Path_38490" data-name="Path 38490" d="M381.458,227.478a.923.923,0,0,0,.918-.918.907.907,0,0,0-.962-.918.947.947,0,0,0-.875.918.924.924,0,0,0,.918.918Z" transform="translate(3654.14 -1086.398)" fill="#fff"/>
      <path id="Path_38491" data-name="Path 38491" d="M380.488,21.314h2.8a7.855,7.855,0,0,0-5.291-3.5,6.5,6.5,0,0,1,1.049,2.274,1.494,1.494,0,0,1,1.443,1.224Z" transform="translate(3656.387 -888.475)" fill="#fff"/>
    </g>
  </g>
</svg>
