<svg xmlns="http://www.w3.org/2000/svg" width="16" height="21.458" viewBox="0 0 16 21.458">
  <path id="centers_menu" d="M167.056,45.382a.781.781,0,0,1-.78-.781V41.74a.78.78,0,0,1,.78-.78,6.43,6.43,0,0,0,6.441-6.406.78.78,0,1,1,1.559,0,7.972,7.972,0,0,1-7.221,7.928V44.6a.781.781,0,0,1-.779.781Zm.1-5.476a5.387,5.387,0,1,1,5.379-5.387A5.389,5.389,0,0,1,167.152,39.905Zm-7.316-4.473a.781.781,0,0,1-.78-.781,8.154,8.154,0,0,1,7.221-8.023V24.7a.78.78,0,1,1,1.559,0V27.37a.78.78,0,0,1-.78.779,6.558,6.558,0,0,0-6.441,6.5.781.781,0,0,1-.779.781Z" transform="translate(-159.056 -23.923)" fill="#fff"/>
</svg>
