<svg xmlns="http://www.w3.org/2000/svg" width="57" height="57" viewBox="0 0 57 57">
  <g id="clients" transform="translate(-361.758 -167.758)">
    <g id="Path_38469" data-name="Path 38469" transform="translate(361.758 167.758)" fill="#eb9852">
      <path d="M 28.5 56.5 C 24.71980094909668 56.5 21.05294990539551 55.75975036621094 17.60128974914551 54.29983139038086 C 14.26712989807129 52.88959884643555 11.27264022827148 50.87062072753906 8.701009750366211 48.29898834228516 C 6.129380226135254 45.72735977172852 4.110410213470459 42.73286819458008 2.700170040130615 39.39870834350586 C 1.240249991416931 35.94704818725586 0.5 32.28020095825195 0.5 28.5 C 0.5 24.71981048583984 1.240249991416931 21.05294990539551 2.700170040130615 17.60128974914551 C 4.110410213470459 14.26712989807129 6.129380226135254 11.27264976501465 8.701009750366211 8.701009750366211 C 11.27264976501465 6.129380226135254 14.26712989807129 4.110410213470459 17.60128974914551 2.700170040130615 C 21.05294990539551 1.240249991416931 24.71981048583984 0.5 28.5 0.5 C 32.28020095825195 0.5 35.94704818725586 1.240249991416931 39.39870834350586 2.700170040130615 C 42.73286819458008 4.110410213470459 45.72735977172852 6.129380226135254 48.29898834228516 8.701009750366211 C 50.87062072753906 11.27264022827148 52.88959884643555 14.26712989807129 54.29983139038086 17.60128974914551 C 55.75975036621094 21.05294990539551 56.5 24.71980094909668 56.5 28.5 C 56.5 32.28020095825195 55.75975036621094 35.94704818725586 54.29983139038086 39.39870834350586 C 52.88959884643555 42.73286819458008 50.87062072753906 45.72735977172852 48.29898834228516 48.29898834228516 C 45.72735977172852 50.87062072753906 42.73286819458008 52.88959884643555 39.39870834350586 54.29983139038086 C 35.94704818725586 55.75975036621094 32.28020095825195 56.5 28.5 56.5 Z" stroke="none"/>
      <path d="M 28.5 1 C 24.78707885742188 1 21.18576049804688 1.726959228515625 17.79605865478516 3.160678863525391 C 14.52149963378906 4.545700073242188 11.58044052124023 6.528690338134766 9.054561614990234 9.054561614990234 C 6.528690338134766 11.58044052124023 4.545700073242188 14.52149963378906 3.160678863525391 17.79605865478516 C 1.726959228515625 21.18576049804688 1 24.78707885742188 1 28.5 C 1 32.21292114257812 1.726959228515625 35.81423950195312 3.160678863525391 39.20394134521484 C 4.545700073242188 42.47850036621094 6.528690338134766 45.41955947875977 9.054561614990234 47.94544219970703 C 11.58044052124023 50.47130966186523 14.52149963378906 52.45429992675781 17.79605865478516 53.83932113647461 C 21.18576049804688 55.27304077148438 24.78707885742188 56 28.5 56 C 32.21292114257812 56 35.81423950195312 55.27304077148438 39.20394134521484 53.83932113647461 C 42.47850036621094 52.45429992675781 45.41955947875977 50.47130966186523 47.94544219970703 47.94544219970703 C 50.47130966186523 45.41955947875977 52.45429992675781 42.47850036621094 53.83932113647461 39.20394134521484 C 55.27304077148438 35.81423950195312 56 32.21292114257812 56 28.5 C 56 24.78707885742188 55.27304077148438 21.18576049804688 53.83932113647461 17.79605865478516 C 52.45429992675781 14.52149963378906 50.47130966186523 11.58044052124023 47.94544219970703 9.054561614990234 C 45.41955947875977 6.528690338134766 42.47850036621094 4.545700073242188 39.20394134521484 3.160678863525391 C 35.81423950195312 1.726959228515625 32.21292114257812 1 28.5 1 M 28.5 0 C 44.24011993408203 0 57 12.75988006591797 57 28.5 C 57 44.24011993408203 44.24011993408203 57 28.5 57 C 12.75988006591797 57 0 44.24011993408203 0 28.5 C 0 12.75988006591797 12.75988006591797 0 28.5 0 Z" stroke="none" fill="#db843a"/>
    </g>
    <g id="Group_8402" data-name="Group 8402" transform="translate(-3753.241 1060.199)">
      <path id="Path_38469-2" data-name="Path 38469" d="M3.417,372.757h-.2A3.08,3.08,0,0,0,0,375.944v3.122c0,.657.2.854.887.854H7.2v-4.042a3.1,3.1,0,0,1,2.4-3.122H3.417Z" transform="translate(4130 -1232.804)" fill="#fff"/>
      <path id="Path_38470" data-name="Path 38470" d="M354.625,19.532a5.435,5.435,0,0,0,5.455-5.422,5.491,5.491,0,0,0-5.455-5.488,5.407,5.407,0,0,0-5.455,5.389A5.519,5.519,0,0,0,354.625,19.532Z" transform="translate(3794.632 -883.063)" fill="#fff"/>
      <path id="Path_38471" data-name="Path 38471" d="M62.791,100.07a4.552,4.552,0,1,0,.033,0h-.033Z" transform="translate(4074.11 -970.896)" fill="#fff"/>
      <path id="Path_38472" data-name="Path 38472" d="M290.378,336.062a3.848,3.848,0,0,0-3.976-4.042H277.5a3.84,3.84,0,0,0-3.976,4.009v3.713c0,.822.263,1.052,1.052,1.052h14.722c.822,0,1.052-.23,1.052-1.052.033-1.216.033-2.432.033-3.681Z" transform="translate(3867.292 -1193.678)" fill="#fff"/>
    </g>
  </g>
</svg>
