<svg xmlns="http://www.w3.org/2000/svg" width="16" height="17.388" viewBox="0 0 16 17.388">
  <path id="clients-menu" d="M157.594,87.1a1.317,1.317,0,0,1-1.019-.922,1.358,1.358,0,0,1-.038-.55c.047-.267.459-1.626.856-2.822a1.215,1.215,0,0,1,.278-.474c.206-.223.315-.279,1.379-.716l.954-.393c.506-.211,1.117-.444,1.763-.672l.215-.076.047.162c.206.712,1.429,4.3,1.487,4.367.009.01.015-.012.015-.053s.032-.774.073-1.635l.073-1.564-.3-.6c-.122-.2-.374-.544-.324-.585.031-.025.086.024.166.065a2.891,2.891,0,0,0,1.211.348,2.978,2.978,0,0,0,1.4-.346c.091-.042.189-.116.226-.074s-.358.565-.364.577l-.31.613.075,1.632c.042.9.081,1.626.088,1.619.044-.047,1.308-3.764,1.493-4.39l.04-.136.595.217c.7.256.772.284,1.406.543,2.011.822,2.033.832,2.254,1.043a1.391,1.391,0,0,1,.287.4c.015.039.084.245.152.457.452,1.4.712,2.272.747,2.5a1.333,1.333,0,0,1-.472,1.192,1.676,1.676,0,0,1-.5.256c-.1.03-.476.031-6.965.034-5.558,0-6.882,0-6.983-.02Zm6.69-7.258a3.83,3.83,0,0,1-2.19-1.495,5.75,5.75,0,0,1-.784-1.544c-.039-.123-.043-.128-.086-.116a.494.494,0,0,1-.3-.028c-.281-.143-.475-.6-.567-1.334-.056-.448-.015-.674.148-.818a.571.571,0,0,1,.426-.123h.167l-.012-.288a6.507,6.507,0,0,1,.027-1.618,3.394,3.394,0,0,1,2.938-2.716,3.515,3.515,0,0,1,2.772.81A3.462,3.462,0,0,1,167.9,72.38a4.115,4.115,0,0,1,.068,1.233c-.012.322-.021.628-.021.679v.093h.167c.275,0,.416.067.512.243a1.469,1.469,0,0,1,.021.91c-.121.77-.418,1.216-.775,1.162-.042-.006-.083-.011-.092-.011a.772.772,0,0,0-.081.192,4.74,4.74,0,0,1-1.793,2.462,4.2,4.2,0,0,1-.781.392,1.5,1.5,0,0,1-.843.107Z" transform="translate(-156.523 -69.734)" fill="#fff"/>
</svg>
