<svg width="18" height="18" viewBox="0 0 18 18" fill="none" xmlns="http://www.w3.org/2000/svg">
<g clip-path="url(#clip0_37_902)">
<path d="M8.99994 0C6.5959 0 4.33586 0.936164 2.63601 2.63602C-0.873118 6.14509 -0.873118 11.8548 2.6359 15.3639C4.33576 17.0638 6.5959 18 8.99994 18C11.4039 18 13.664 17.0638 15.3639 15.3639C18.873 11.8548 18.873 6.14509 15.3639 2.63602C13.664 0.936164 11.4039 0 8.99994 0ZM13.0497 13.0497C12.8899 13.2095 12.6806 13.2894 12.4712 13.2894C12.2618 13.2894 12.0524 13.2095 11.8927 13.0497L8.99994 10.1571L6.10723 13.0498C5.94741 13.2095 5.73806 13.2895 5.52866 13.2895C5.31932 13.2895 5.10986 13.2095 4.95021 13.0498C4.63063 12.7303 4.63063 12.2122 4.95021 11.8927L7.84286 9L4.95016 6.10729C4.63057 5.78782 4.63057 5.26975 4.95016 4.95022C5.26963 4.63075 5.7877 4.63075 6.10723 4.95022L8.99994 7.84293L11.8925 4.95022C12.212 4.63075 12.7301 4.63075 13.0496 4.95022C13.3692 5.26969 13.3692 5.78776 13.0496 6.10729L10.157 9L13.0497 11.8927C13.3692 12.2122 13.3692 12.7303 13.0497 13.0497Z" fill="white"/>
</g>
<defs>
<clipPath id="clip0_37_902">
<rect width="18" height="18" fill="white"/>
</clipPath>
</defs>
</svg>
