<svg xmlns="http://www.w3.org/2000/svg" width="22.33" height="22.339" viewBox="0 0 22.33 22.339">
  <g id="close-red" transform="translate(-8737.281 -1101.286)">
    <path id="Path_38495" data-name="Path 38495" d="M241.355,181.44l-1.117,1.117,3.4,3.4-3.4,3.4,1.117,1.117,3.4-3.4,3.4,3.4,1.117-1.117-3.4-3.4,3.4-3.4-1.117-1.117-3.4,3.4Z" transform="translate(8503.678 926.491)" fill="rgba(252,11,11,0.6)"/>
    <path id="Path_38496" data-name="Path 38496" d="M90.48,31.479a11.179,11.179,0,1,0,15.809,0A11.213,11.213,0,0,0,90.48,31.479Zm14.668,14.668a9.582,9.582,0,1,1,.024-13.551,9.557,9.557,0,0,1-.024,13.551Z" transform="translate(8650.061 1073.076)" fill="rgba(252,11,11,0.6)"/>
  </g>
</svg>
