<svg xmlns="http://www.w3.org/2000/svg" width="16.017" height="16.017" viewBox="0 0 16.017 16.017">
  <path id="Deploy-Configs" d="M140.348,68.676a1.668,1.668,0,0,0-1.528,1h-.808v-3h1.335a2.669,2.669,0,0,0,0-5.339,2.666,2.666,0,0,0-2.219-2.625A4,4,0,0,0,129.336,60a3.337,3.337,0,1,0,0,6.674H130v3H129.2a1.668,1.668,0,1,0,0,1.335H130a1.335,1.335,0,0,0,1.335-1.335v-3h2v2.143a1.668,1.668,0,1,0,1.335,0V66.674h2v3a1.335,1.335,0,0,0,1.335,1.335h.808a1.668,1.668,0,1,0,1.528-2.336Z" transform="translate(-125.999 -55.996)" fill="#fff"/>
</svg>
