<svg xmlns="http://www.w3.org/2000/svg" xmlns:xlink="http://www.w3.org/1999/xlink" width="61.254" height="61.254" viewBox="0 0 61.254 61.254">
  <defs>
    <filter id="Path_467" x="0" y="0" width="61.254" height="61.254" filterUnits="userSpaceOnUse">
      <feOffset dy="3" input="SourceAlpha"/>
      <feGaussianBlur stdDeviation="3" result="blur"/>
      <feFlood flood-opacity="0.051"/>
      <feComposite operator="in" in2="blur"/>
      <feComposite in="SourceGraphic"/>
    </filter>
  </defs>
  <g id="edit-profile" transform="translate(-885.873 -413.873)">
    <g transform="matrix(1, 0, 0, 1, 885.87, 413.87)" filter="url(#Path_467)">
      <g id="Path_467-2" data-name="Path 467" transform="translate(9 6)" fill="#fff">
        <path d="M 21.626953125 42.75390243530273 C 18.77461242675781 42.75390243530273 16.00786399841309 42.19538497924805 13.40354347229004 41.09384155273438 C 10.8878231048584 40.02978134155273 8.628373146057129 38.50638198852539 6.687942981719971 36.56596374511719 C 4.747523307800293 34.62553405761719 3.224123239517212 32.36608123779297 2.160063028335571 29.85036277770996 C 1.058523178100586 27.24604225158691 0.5000030994415283 24.47929382324219 0.5000030994415283 21.626953125 C 0.5000030994415283 18.77461242675781 1.058523178100586 16.00786399841309 2.160063028335571 13.40354347229004 C 3.224123239517212 10.8878231048584 4.747523307800293 8.628373146057129 6.687942981719971 6.687942981719971 C 8.628373146057129 4.747523307800293 10.8878231048584 3.224123239517212 13.40354347229004 2.160063028335571 C 16.00786399841309 1.058523178100586 18.77461242675781 0.5000030994415283 21.626953125 0.5000030994415283 C 24.47929382324219 0.5000030994415283 27.24604225158691 1.058523178100586 29.85036277770996 2.160063028335571 C 32.36608123779297 3.224123239517212 34.62553405761719 4.747523307800293 36.56596374511719 6.687942981719971 C 38.50638198852539 8.628373146057129 40.02978134155273 10.8878231048584 41.09384155273438 13.40354347229004 C 42.19538497924805 16.00786399841309 42.75390243530273 18.77461242675781 42.75390243530273 21.626953125 C 42.75390243530273 24.47929382324219 42.19538497924805 27.24604225158691 41.09384155273438 29.85036277770996 C 40.02978134155273 32.36608123779297 38.50638198852539 34.62553405761719 36.56596374511719 36.56596374511719 C 34.62553405761719 38.50638198852539 32.36608123779297 40.02978134155273 29.85036277770996 41.09384155273438 C 27.24604225158691 42.19538497924805 24.47929382324219 42.75390243530273 21.626953125 42.75390243530273 Z" stroke="none"/>
        <path d="M 21.626953125 1.000003814697266 C 18.84189224243164 1.000003814697266 16.14066314697266 1.545234680175781 13.59831237792969 2.620563507080078 C 11.14219284057617 3.659412384033203 8.936164855957031 5.146831512451172 7.041492462158203 7.041492462158203 C 5.146831512451172 8.936164855957031 3.659412384033203 11.14219284057617 2.620563507080078 13.59831237792969 C 1.545234680175781 16.14066314697266 1.000003814697266 18.84189224243164 1.000003814697266 21.626953125 C 1.000003814697266 24.41201400756836 1.545234680175781 27.11323356628418 2.620563507080078 29.65558242797852 C 3.659412384033203 32.11170196533203 5.146831512451172 34.31774139404297 7.041492462158203 36.21240234375 C 8.936164855957031 38.10707473754883 11.14219284057617 39.5944938659668 13.59831237792969 40.63334274291992 C 16.14066314697266 41.70867156982422 18.84189224243164 42.25390243530273 21.626953125 42.25390243530273 C 24.41201400756836 42.25390243530273 27.11323356628418 41.70867156982422 29.65558242797852 40.63334274291992 C 32.11170196533203 39.5944938659668 34.31774139404297 38.10707473754883 36.21240234375 36.21240234375 C 38.10707473754883 34.31774139404297 39.5944938659668 32.11170196533203 40.63334274291992 29.65558242797852 C 41.70867156982422 27.11323356628418 42.25390243530273 24.41201400756836 42.25390243530273 21.626953125 C 42.25390243530273 18.84189224243164 41.70867156982422 16.14066314697266 40.63334274291992 13.59831237792969 C 39.5944938659668 11.14219284057617 38.10707473754883 8.936164855957031 36.21240234375 7.041492462158203 C 34.31774139404297 5.146831512451172 32.11170196533203 3.659412384033203 29.65558242797852 2.620563507080078 C 27.11323356628418 1.545234680175781 24.41201400756836 1.000003814697266 21.626953125 1.000003814697266 M 21.626953125 3.814697265625e-06 C 33.57118225097656 3.814697265625e-06 43.25390243530273 9.682712554931641 43.25390243530273 21.626953125 C 43.25390243530273 33.57118225097656 33.57118225097656 43.25390243530273 21.626953125 43.25390243530273 C 9.682712554931641 43.25390243530273 3.814697265625e-06 33.57118225097656 3.814697265625e-06 21.626953125 C 3.814697265625e-06 9.682712554931641 9.682712554931641 3.814697265625e-06 21.626953125 3.814697265625e-06 Z" stroke="none" fill="#e0e0e0"/>
      </g>
    </g>
    <path id="Icon_open-pencil" data-name="Icon open-pencil" d="M13.05,0,10.875,2.175l4.35,4.35L17.4,4.35ZM8.7,4.35,0,13.05V17.4H4.35l8.7-8.7Z" transform="translate(907.799 431.8)"/>
  </g>
</svg>
