<svg xmlns="http://www.w3.org/2000/svg" width="19.31" height="14.143" viewBox="0 0 19.31 14.143">
  <g id="game-played" transform="translate(-537.181 -215.47)">
    <path id="Path_16" data-name="Path 16" d="M120.469,106.42a1.174,1.174,0,1,1-1.2,1.143A1.174,1.174,0,0,1,120.469,106.42Zm-10.71-2.9a.679.679,0,0,1,.719.668v1.121h1.12a.72.72,0,0,1,0,1.436h-1.12v1.122a.721.721,0,0,1-1.437,0v-1.122H107.92a.72.72,0,0,1,0-1.436h1.121v-1.121A.679.679,0,0,1,109.759,103.524Zm8.758-.229a1.173,1.173,0,1,1-1.2,1.143,1.175,1.175,0,0,1,1.2-1.143Zm-8.976-3.191a3.623,3.623,0,0,0-3.887,3.347l-.863,7.881a2.645,2.645,0,0,0,2.591,2.915c2.366,0,4.285-3.854,5.564-3.854H115.9c1.28,0,3.2,3.854,5.564,3.854a2.622,2.622,0,0,0,2.59-2.915l-.864-7.881a3.655,3.655,0,0,0-3.885-3.347c-1.757,0-2.136.954-4.082.954h-1.6c-1.946,0-2.327-.954-4.082-.954Z" transform="translate(432.407 115.366)" fill="#fff"/>
  </g>
</svg>
