<svg xmlns="http://www.w3.org/2000/svg" width="12.91" height="11.681" viewBox="0 0 12.91 11.681">
  <g id="login-as-manager" transform="translate(0 0)">
    <path id="Path_38503" data-name="Path 38503" d="M91.841,159.377h7.545l-1.509,1.509a.563.563,0,0,0,.8.8l2.445-2.473a.559.559,0,0,0,0-.782l-2.445-2.473a.563.563,0,1,0-.8.8l1.509,1.509H91.841a.559.559,0,0,0,0,1.118Z" transform="translate(-91.282 -153.047)" fill="#595959"/>
    <path id="Path_38504" data-name="Path 38504" d="M238.742,45.922h-5.505a1.956,1.956,0,0,0-1.956,1.956v1.579a.559.559,0,1,0,1.118,0V47.878a.839.839,0,0,1,.838-.838h5.505a.839.839,0,0,1,.838.838v7.769a.839.839,0,0,1-.838.838h-5.505a.839.839,0,0,1-.838-.838V53.928a.559.559,0,1,0-1.118,0v1.719a1.956,1.956,0,0,0,1.956,1.956h5.505a1.956,1.956,0,0,0,1.956-1.956V47.878a1.956,1.956,0,0,0-1.956-1.956Z" transform="translate(-227.788 -45.922)" fill="#595959"/>
  </g>
</svg>
