<svg xmlns="http://www.w3.org/2000/svg" width="17.533" height="15.223" viewBox="0 0 17.533 15.223">
  <g id="Machines" transform="translate(-339.531 -458.541)">
    <g id="Group_17" data-name="Group 17" transform="translate(339.531 458.541)">
      <path id="Path_8" data-name="Path 8" d="M38.886,349.6a7.685,7.685,0,0,0,.415,1.955.5.5,0,0,1-.415.711H33.733a.5.5,0,0,1-.474-.711,4.646,4.646,0,0,0,.415-1.955h-4.68a1.467,1.467,0,0,1-1.481-1.481v-1.659H45.046v1.659a1.455,1.455,0,0,1-1.422,1.481H38.886Z" transform="translate(-27.513 -337.043)" fill="#fff" fill-rule="evenodd"/>
      <path id="Path_9" data-name="Path 9" d="M28.992,0H43.623a1.455,1.455,0,0,1,1.422,1.481V8.53H27.511V1.481A1.467,1.467,0,0,1,28.992,0Z" transform="translate(-27.511 0)" fill="#fff" fill-rule="evenodd"/>
    </g>
  </g>
</svg>
