<svg xmlns="http://www.w3.org/2000/svg" width="16" height="15.43" viewBox="0 0 16 15.43">
  <g id="noun-sort" transform="translate(-104.996 -52.467)">
    <path id="Path_38520" data-name="Path 38520" d="M105.844,56.407a.571.571,0,0,1-.554-1l5.136-2.857a.571.571,0,0,1,.848.5V67.336a.571.571,0,1,1-1.141,0V54.022Z" transform="translate(0 -0.011)" fill="#595959"/>
    <path id="Path_38521" data-name="Path 38521" d="M403.643,66.256l4.249-2.836a.571.571,0,0,1,.633.951L403.389,67.8a.571.571,0,0,1-.887-.475V53.038a.571.571,0,1,1,1.141,0Z" transform="translate(-287.783 0)" fill="#595959"/>
  </g>
</svg>
