<svg xmlns="http://www.w3.org/2000/svg" width="13" height="11.095" viewBox="0 0 13 11.095">
  <g id="resend" transform="translate(0 0)">
    <path id="Path_38502" data-name="Path 38502" d="M272.993,204.965h-5.687v-1.028a.406.406,0,0,0-.813,0v1.028h-5.687a.408.408,0,0,0-.406.406v8.848a.408.408,0,0,0,.406.406h12.187a.408.408,0,0,0,.406-.406v-8.848a.408.408,0,0,0-.406-.406Zm-7.467,3.209a1.312,1.312,0,1,1-1.3,1.312A1.309,1.309,0,0,1,265.526,208.174Zm3.279,1.41a.408.408,0,0,1,.406-.406h1.682a.406.406,0,0,1,0,.813h-1.682A.408.408,0,0,1,268.8,209.584Zm2.088-1.7h-1.682a.406.406,0,0,1,0-.813h1.682a.406.406,0,0,1,0,.813Zm-3.157,5.931h-4.424V213.8a2.212,2.212,0,0,1,4.424,0v.008Z" transform="translate(-260.399 -203.53)" fill="#595959"/>
  </g>
</svg>
