<svg xmlns="http://www.w3.org/2000/svg" width="16.097" height="16.097" viewBox="0 0 16.097 16.097">
  <path id="settings" d="M161.6,82.292h-1.462a6.437,6.437,0,0,0-.776-1.869l1.036-1.036h0a.26.26,0,0,0,0-.366l-1.792-1.792a.26.26,0,0,0-.366,0l-1.036,1.036h0a6.436,6.436,0,0,0-1.869-.776V76.026a.26.26,0,0,0-.26-.26H152.55a.26.26,0,0,0-.26.26v1.462a6.437,6.437,0,0,0-1.869.776l-1.036-1.036h0a.26.26,0,0,0-.366,0l-1.792,1.792a.26.26,0,0,0,0,.366l1.036,1.036h0a6.437,6.437,0,0,0-.776,1.869h-1.462a.26.26,0,0,0-.26.26V85.08a.26.26,0,0,0,.26.26h1.462a6.437,6.437,0,0,0,.776,1.869l-1.036,1.036h0a.26.26,0,0,0,0,.366l1.792,1.792a.26.26,0,0,0,.366,0l1.036-1.036h0a6.436,6.436,0,0,0,1.869.776V91.6a.26.26,0,0,0,.26.26h2.529a.26.26,0,0,0,.26-.26V90.143a6.437,6.437,0,0,0,1.869-.776l1.036,1.036h0a.26.26,0,0,0,.366,0l1.792-1.792a.26.26,0,0,0,0-.366l-1.036-1.036h0a6.436,6.436,0,0,0,.776-1.869H161.6a.26.26,0,0,0,.26-.26V82.551a.26.26,0,0,0-.26-.26Zm-7.789,4.534a3.013,3.013,0,1,1,2.127-.882,3.01,3.01,0,0,1-2.127.882Z" transform="translate(-145.766 -75.767)" fill="#fff"/>
</svg>
