<svg xmlns="http://www.w3.org/2000/svg" xmlns:xlink="http://www.w3.org/1999/xlink" width="85" height="85" viewBox="0 0 85 85">
  <defs>
    <filter id="Ellipse_5" x="0" y="0" width="85" height="85" filterUnits="userSpaceOnUse">
      <feOffset dy="3" input="SourceAlpha"/>
      <feGaussianBlur stdDeviation="3" result="blur"/>
      <feFlood flood-color="#ebf7f7"/>
      <feComposite operator="in" in2="blur"/>
      <feComposite in="SourceGraphic"/>
    </filter>
  </defs>
  <g id="Group_7143" data-name="Group 7143" transform="translate(-418 -114)">
    <g transform="matrix(1, 0, 0, 1, 418, 114)" filter="url(#Ellipse_5)">
      <g id="Ellipse_5-2" data-name="Ellipse 5" transform="translate(9 6)" fill="#fff" stroke="#ebf7f7" stroke-width="1">
        <circle cx="33.5" cy="33.5" r="33.5" stroke="none"/>
        <circle cx="33.5" cy="33.5" r="33" fill="none"/>
      </g>
    </g>
    <g id="vuesax_bold_people" data-name="vuesax/bold/people" transform="translate(442.5 135.5)">
      <g id="people">
        <path id="Vector" d="M36,0V36H0V0Z" fill="#eb963d" opacity="0"/>
        <path id="Vector-2" data-name="Vector" d="M4.17,8.655a4.343,4.343,0,1,1,.315,0A1.108,1.108,0,0,0,4.17,8.655Z" transform="translate(21.81 3)" fill="#eb963d"/>
        <path id="Vector-3" data-name="Vector" d="M.075,8.3A9.8,9.8,0,0,0,.96,4.264,9.217,9.217,0,0,0,0,.094,9.356,9.356,0,0,1,6.27,1.339c2.37,1.56,2.37,4.125.015,5.7A9.314,9.314,0,0,1,.075,8.3Z" transform="translate(24.9 15.011)" fill="#eb963d"/>
        <path id="Vector-4" data-name="Vector" d="M4.485,8.655a4.328,4.328,0,1,0-.315,0A1.108,1.108,0,0,1,4.485,8.655Z" transform="translate(5.49 3)" fill="#eb963d"/>
        <path id="Vector-5" data-name="Vector" d="M7.718,8.344a9.269,9.269,0,0,1-5.94-1.29c-2.37-1.575-2.37-4.14,0-5.715a9.212,9.212,0,0,1,6-1.275,9.537,9.537,0,0,0-.945,4.2A9.769,9.769,0,0,0,7.718,8.344Z" transform="translate(2.993 15.011)" fill="#eb963d"/>
        <path id="Vector-6" data-name="Vector" d="M4.965,10.3a5.175,5.175,0,1,1,.39,0A1.694,1.694,0,0,0,4.965,10.3Z" transform="translate(12.825 13.5)" fill="#eb963d"/>
        <path id="Vector-7" data-name="Vector" d="M1.7,6.8a9.166,9.166,0,0,0,9.39,0c2.265-1.515,2.265-4.005,0-5.505a9.166,9.166,0,0,0-9.39,0C-.566,2.809-.566,5.3,1.7,6.8Z" transform="translate(11.606 25.616)" fill="#eb963d"/>
      </g>
    </g>
  </g>
</svg>
