<svg xmlns="http://www.w3.org/2000/svg" width="17.094" height="15.911" viewBox="0 0 17.094 15.911">
  <g id="Survey" transform="translate(-382.234 -134)">
    <path id="Path_14" data-name="Path 14" d="M88.156,23.061v-1.51a1.18,1.18,0,0,0-1.185-1.171H72.247a1.179,1.179,0,0,0-1.185,1.171v1.51ZM85.7,21.633a.541.541,0,1,1-.541.541A.541.541,0,0,1,85.7,21.633Zm-1.628,0a.541.541,0,1,1-.541.541A.541.541,0,0,1,84.069,21.633Zm-1.628,0a.541.541,0,1,1-.541.541A.541.541,0,0,1,82.441,21.633Z" transform="translate(311.172 113.62)" fill="#fff"/>
    <path id="Path_15" data-name="Path 15" d="M71.066,133.72v11.267a1.18,1.18,0,0,0,1.185,1.171H86.975a1.179,1.179,0,0,0,1.185-1.171V133.72Zm4.471,2.791a.4.4,0,0,1,.56-.56l.38.38.38-.38a.4.4,0,0,1,.56.56l-.38.38.38.38a.4.4,0,0,1-.56.56l-.38-.38-.38.38a.4.4,0,0,1-.56-.56l.38-.38Zm1.88,6.064a.4.4,0,0,1-.56.56l-.38-.38-.38.38a.4.4,0,0,1-.56-.56l.38-.38-.38-.38a.4.4,0,0,1,.56-.56l.38.38.38-.38a.4.4,0,1,1,.56.56l-.38.38ZM77.6,139.1l-.957,1.346-.008.009a.4.4,0,0,1-.044.049c-.006.005-.012.012-.018.018l-.006.006a.163.163,0,0,1-.015.008.393.393,0,0,1-.087.048l-.031.011a.389.389,0,0,1-.112.018h0a.392.392,0,0,1-.1-.016l-.029-.01a.4.4,0,0,1-.078-.039c-.005,0-.011,0-.016-.008l-.008-.007-.023-.021a.387.387,0,0,1-.04-.04l-.009-.009-.634-.8a.4.4,0,1,1,.62-.492l.307.386.652-.917a.4.4,0,1,1,.645.458Zm5.949,3.491H78.793a.4.4,0,0,1,0-.792h4.751a.4.4,0,1,1,0,.792Zm0-2.652H78.793a.4.4,0,1,1,0-.792h4.751a.4.4,0,1,1,0,.792Zm0-2.652H78.793a.4.4,0,1,1,0-.792h4.751a.4.4,0,1,1,0,.792Z" transform="translate(311.168 3.753)" fill="#fff"/>
  </g>
</svg>
