<svg xmlns="http://www.w3.org/2000/svg" width="14.583" height="16.867" viewBox="0 0 14.583 16.867">
  <g id="Survey-Managers" transform="translate(-494.187 -160)">
    <path id="Path_10" data-name="Path 10" d="M175.774,62.649l-.006-.032c0,.027,0,.055,0,.082s-.006.084-.006.1a1.162,1.162,0,0,1-.034.122l-.006.019,0,.008s0,.008,0,.011,0,0,0,0,0,0,0,0l-.006.013-.025.05a1.556,1.556,0,0,1-.092.147s.006-.006.006-.008a.156.156,0,0,1-.011.013.029.029,0,0,1-.006.008.183.183,0,0,0-.017.021l-.034.04a2.049,2.049,0,0,1-.149.153l-.05.044c-.008.006-.015.015-.023.021l-.027.025-.053.044a.007.007,0,0,1,0,0s0,0,0,0l-.006.006-.019.013-.027.019c-.01.006-.019.015-.029.021a.222.222,0,0,0-.023.017,4.96,4.96,0,0,1-.538.319c-.082.042-.164.082-.248.12l-.111.05a.007.007,0,0,0,0,0s-.006,0-.01,0h0a.344.344,0,0,1-.04.017.063.063,0,0,1,.021-.008h0l-.034.015c-.172.069-.349.135-.525.193-.2.067-.4.126-.6.181-.061.017-.124.034-.185.048-.036.008-.071.017-.105.027s-.063.017-.1.023l-.105.025a.4.4,0,0,1-.048.011l-.078.017-.084.019-.084.019-.113.023-.122.025-.1.019-.086.017-.092.017c-.107.019-.214.036-.324.053l-.036.006-.137.021-.074.011-.019,0h-.01v0s0-.006-.006-.006a.007.007,0,0,1,0,0v0h0s0,0,0,0l0,0-.015,0h-.006a.1.1,0,0,1-.023,0l-.13.017c-.086.01-.174.021-.263.029s-.158.017-.235.023c-.042,0-.086.008-.128.011l-.141.013L170,65l-.135.008c-.023,0-.044,0-.067,0l-.067,0-.132.006-.137.006c-.034,0-.069,0-.1,0-.069,0-.137.006-.206.006l-.1,0-.137,0h0l-.126,0h-.425c-.04,0-.08,0-.12,0h-.038l-.126,0c-.095,0-.189,0-.284-.008l-.061,0-.061,0a.158.158,0,0,1-.032,0l-.105,0-.095,0c-.023,0-.046-.006-.069-.006-.055,0-.111-.013-.166-.013h0c-.023,0-.046,0-.069,0s-.046,0-.069,0l-.046,0h-.013c-.027,0-.055,0-.082,0-.09-.006-.183-.015-.273-.023s-.183-.017-.273-.027l-.027,0-.044,0H166.3l-.027,0-.04,0h0l-.164-.019-.13-.017a.049.049,0,0,1-.017,0l-.006,0v0l0,0v0l0,0v.006s0,0,0-.006l0,0h-.008a0,0,0,0,0,0,0v0a.016.016,0,0,1-.01,0h0a.452.452,0,0,1-.053-.008c-.061-.008-.12-.017-.181-.027l-.084-.013-.084-.013-.084-.013q-.139-.022-.277-.05l-.01,0c-.042-.008-.082-.017-.124-.023-.113-.021-.227-.044-.338-.069l-.029-.006-.139-.029s-.773-.206-.8-.219l-.208-.065s0,0,0,0c-.032-.008-.061-.019-.09-.029-.166-.057-.332-.118-.5-.183l-.021-.008-.021-.008s0,0,0,0h0l-.006,0s0,0,0,0-.006,0-.01,0l-.006,0s0,0,0,0h0c-.031-.015-.063-.027-.1-.042-.086-.038-.17-.08-.254-.122a4.585,4.585,0,0,1-.441-.252c-.065-.042-.128-.088-.191-.132l-.017-.013.025.019a.249.249,0,0,1-.034-.027h0a.105.105,0,0,1-.017-.015l-.069-.059c-.055-.048-.109-.1-.16-.151,0,0-.019-.021-.036-.042s-.048-.055-.071-.082v0c0,.006.006.008.006.011a.365.365,0,0,0-.023-.032v0l-.006-.006,0,0c-.019-.027-.038-.057-.057-.086s-.036-.063-.053-.1v0c0-.011-.021-.053-.021-.055a.143.143,0,0,1,.015.032c-.008-.025-.019-.05-.025-.076-.013-.042-.017-.084-.027-.126s0-.059,0-.088v-.019s0,0,0,0v0l0-.008v0a.284.284,0,0,1,0-.042c0,.015,0,.025,0,.034,0-.017.006-.038.011-.057s.017-.061.025-.09a.147.147,0,0,1,.011-.027,1.91,1.91,0,0,1,.092-.17c.017-.027.036-.053.053-.078.008-.008.015-.019.023-.027a1.971,1.971,0,0,1,.172-.179c.029-.027.059-.055.09-.082a.509.509,0,0,1,.053-.042.154.154,0,0,1,.025-.019l-.013.008s0,0,.006,0l.023-.019s0,0,0,0l0,0,.05-.036.13-.088c.084-.055.168-.105.254-.153.183-.1.374-.193.565-.277.013,0,.027-.013.04-.017l.074-.029c.063-.025.124-.048.187-.071.118-.044.235-.084.355-.124a13.243,13.243,0,0,1,1.656-.414c.156-.029.311-.055.469-.08l.223-.034c.008,0,.027,0,.044-.006a.023.023,0,0,0,.01,0l.015,0h0l.095-.013c.332-.042.664-.074,1-.1a20.824,20.824,0,0,1,4.157.109.027.027,0,0,1,.013,0,.013.013,0,0,1-.008,0l.032,0a.065.065,0,0,1-.019,0l.027,0,.1.015c.086.013.17.025.256.04.149.025.3.05.448.08.288.055.576.118.86.191.263.067.523.143.78.229.122.042.244.084.364.13l.16.063.065.027a.2.2,0,0,0-.023-.006l.048.017a6.4,6.4,0,0,1,.588.294c.088.05.174.105.259.162.038.025.074.05.109.078l.036.025c-.059-.05.057.042.013.011a.055.055,0,0,1-.013-.011s0,0,.006,0a2.848,2.848,0,0,1,.351.343l.013.017c.023.032.044.065.065.1s.034.059.048.088a.112.112,0,0,1,.01.023,1.62,1.62,0,0,1,.05.172s0,.006,0,.011a.047.047,0,0,0,0-.017c-.027-.063-.011.08-.015.063Z" transform="translate(332.979 99.669)" fill="#fff"/>
    <path id="Path_11" data-name="Path 11" d="M174.852,162.535a.091.091,0,0,0,0,.01s-.015.044-.038.118c0,0,0,0,0,.006s0,.006,0,.011v0s0,0,0,0h0s0,.006,0,.011-.006,0-.006.006a.007.007,0,0,1,0,0l0,0a.125.125,0,0,1-.008.017v0a.135.135,0,0,0-.008.019.536.536,0,0,1-.034.059c-.013.023-.027.044-.04.067l-.025.038c.008-.006-.034.053-.032.042a2.651,2.651,0,0,1-.183.193c-.038.036-.076.069-.116.1-.013.01-.025.021-.04.032-.029.027-.059.053-.021.017,0,0,0,0,0,0l0,0a.337.337,0,0,1-.063.044,4.781,4.781,0,0,1-.616.364c-.082.04-.164.08-.248.118a.621.621,0,0,1-.124.055l.05-.021-.05.021-.078.032a12.376,12.376,0,0,1-2.677.687c-.067.011-.132.021-.2.029a.608.608,0,0,1-.061.008h-.034l-.019,0c-.145.019-.29.036-.433.05q-.41.044-.82.069c-.437.027-.876.038-1.314.038H167.6c-.065,0-.13,0-.2,0q-.173,0-.347-.006l-.105,0-.065,0h-.038l-.078,0-.139-.006-.137-.006h0a.1.1,0,0,1-.025,0l-.143-.008h0l-.168-.011h0c-.107-.006-.214-.017-.319-.025h0a.233.233,0,0,1-.038,0l-.095-.008a.058.058,0,0,1-.019,0l-.055-.006h0l-.025,0-.021,0-.038,0-.065-.006-.17-.019-.078-.008-.059-.006-.032,0-.046-.006-.032,0a.041.041,0,0,1-.015,0h0a.013.013,0,0,1-.008,0,.016.016,0,0,1-.01,0h-.021v0h-.006v0h-.008v0l0,0v0h-.008l0,0a.007.007,0,0,1,0,0,.016.016,0,0,1-.008,0l-.04-.006h-.006a.008.008,0,0,1-.006,0l-.168-.025-.015,0-.12-.019-.017,0-.017,0-.025,0-.1-.017-.053-.008-.015,0-.111-.019-.1-.017-.053-.011c-.046-.008-.09-.017-.137-.027l-.015,0c-.042-.008-.084-.017-.126-.027l-.01,0-.128-.027h0l-.128-.029c-.029-.006-.059-.015-.09-.021a.075.075,0,0,0-.021,0l-.036-.008a.008.008,0,0,1-.006,0l-.095-.023-.151-.038c-.059-.015-.116-.032-.174-.048l-.069-.019c-.023-.006-.046-.013-.069-.021l-.078-.023-.107-.032c-.219-.067-.435-.143-.647-.227-.029-.011-.059-.023-.086-.036l-.038-.015a0,0,0,0,1,0,0h0c.034.015-.038-.015-.044-.017l.025.011s-.006,0-.008,0h0a.113.113,0,0,1-.023-.01.25.25,0,0,1-.023-.011h0s0,0,0,0l-.006,0a0,0,0,0,1,0,0l-.01,0h0l-.055-.025c-.053-.023-.105-.053-.158-.076-.006,0-.011-.006-.017-.008l-.053-.027-.053-.027-.053-.027c-.017-.011-.036-.019-.053-.029s-.032-.017-.048-.027-.048-.027-.071-.042l-.069-.042-.044-.027-.011-.006a.451.451,0,0,1-.04-.027c-.015-.008-.029-.019-.044-.029l-.006,0-.011-.006-.053-.036-.053-.038-.008-.006-.015-.011a.046.046,0,0,1-.01-.008,0,0,0,0,1,0,0c.046.04-.08-.057,0,0a.007.007,0,0,0,0,0h0a.007.007,0,0,0,0,0,.079.079,0,0,1-.013-.01c-.044-.036-.088-.074-.13-.111l-.025-.023a.128.128,0,0,1-.017-.017.2.2,0,0,1-.021-.021l-.017-.017-.006-.006-.006-.006c-.01-.011-.021-.021-.032-.034l-.038-.04,0,0s0,0,0,0l-.042-.048,0,0s0,0-.006-.008,0,0,0-.008-.008-.008-.008-.013h0l0,0v0h0l0,0h0c-.006-.01-.015-.021-.021-.032a.2.2,0,0,1-.017-.027l-.013-.021-.029-.048s0,0,0-.006l-.025-.048c-.006-.013-.013-.034-.021-.048,0,0,0,0,0,.006s.013.036.015.04v0s0-.006,0-.008v0a.205.205,0,0,0-.013-.029s0,0,0,0v0a0,0,0,0,1,0,0c0-.008-.006-.017-.008-.025-.01-.034-.021-.067-.029-.1,0,0,0-.006,0-.011l0,0a.061.061,0,0,1,0-.019v0a.036.036,0,0,0,0-.015v-.006c0-.021-.006-.042,0-.017a.107.107,0,0,1,0-.019.13.13,0,0,1,.006.034s0,.006,0,.011v0s0-.008,0-.013c0-.036,0-.071,0-.107v-2.524c.063.053.13.1.2.151l.027.019a5.2,5.2,0,0,0,.75.425,9.08,9.08,0,0,0,1.225.469c.1.032.282.084.4.113l.1.025.132.034.092.025.086.021a.013.013,0,0,1,.008,0,16.622,16.622,0,0,0,1.7.3l.1.013a21.011,21.011,0,0,0,2.541.143c.187,0,.374,0,.561-.008a.254.254,0,0,0,.04,0c.179-.006.355-.013.534-.023a18.792,18.792,0,0,0,2.74-.349l.088-.019.078-.017.038-.008c.13-.029.258-.059.387-.092a9.726,9.726,0,0,0,1.818-.641c.164-.078.328-.164.488-.258l.053-.032.067-.044.071-.046.036-.025c.071-.048.141-.1.208-.156v2.495a1.2,1.2,0,0,0-.006.153l.006-.019.006-.019a.323.323,0,0,0-.008.044c-.008,0-.01.006-.01.011Z" transform="translate(333.894 3.975)" fill="#fff"/>
    <path id="Path_12" data-name="Path 12" d="M174.682,265.172c.059-.042.116-.084.17-.13v2.616c0,.013,0,.025,0,.038l-.006.032s0,.006,0,.008,0,.006,0,.01l-.006.023v0c-.006.021-.013.042-.019.065a.24.24,0,0,1-.013.032.007.007,0,0,1,0,0s0,0,0,.006l-.008.017s0,0,0,.006a.342.342,0,0,1-.021.038c0,.006-.006.013-.01.019s0,.006,0,.008a.045.045,0,0,1-.006.01l-.01.017c-.021.034-.042.067-.065.1l0,0s0,0,0,.006,0,0,0,.006l-.006.008-.059.069a2.742,2.742,0,0,1-.277.263l-.013.011-.008.006,0,0-.008.006h0l0,0-.013.008a0,0,0,0,0,0,0l-.061.044c-.065.046-.132.09-.2.13-.105.065-.212.124-.322.181l-.013.006c-.065.034-.13.065-.2.1l-.113.053a.13.13,0,0,1-.025.011l-.044.019-.006,0h0l-.015.006s0,0,0,0-.006,0-.008,0h0a0,0,0,0,0,0,0c-.027.01-.055.021-.082.034l-.179.069c-.12.044-.242.086-.364.126-.256.084-.515.158-.778.223q-.432.107-.87.189c-.153.029-.307.055-.462.08-.076.013-.151.023-.229.034l-.017,0h-.006l-.055.006c0,.006,0,0,0,0s0,.01,0,.01,0,0-.006,0l0,0-.082.01c-.343.044-.689.076-1.034.1-.038,0-.076,0-.116.008l-.069,0-.069,0c-.027,0-.055,0-.084,0a20.937,20.937,0,0,1-2.951-.044c-.156-.013-.311-.029-.464-.046l-.219-.025-.109-.013-.036,0h-.021v0l0,0h-.006c0-.008,0-.011,0-.011s0,0,0,0c-.29-.04-.576-.09-.864-.145a13.145,13.145,0,0,1-1.3-.315l-.2-.063-.061-.019a.223.223,0,0,1-.04-.015c-.059-.019-.116-.04-.174-.061l-.086-.032h0l-.034-.013-.05-.019-.105-.04h0c-.021-.008-.04-.017-.061-.023l-.05-.021h0s0,0-.008,0l-.015-.006-.006,0a.063.063,0,0,1-.017-.008h0l-.044-.019-.038-.017-.015-.006c-.021-.008-.04-.019-.061-.027a.8.8,0,0,1-.074-.036c-.034-.017-.067-.032-.1-.048-.095-.046-.187-.1-.277-.149l-.021-.013c-.042-.025-.086-.05-.128-.078-.061-.04-.122-.08-.181-.122-.006,0-.034-.023-.048-.036l0,0s0,0,0,0a0,0,0,0,1,0,0l0,0v0s0,0,0,0,0,0,0,0a.115.115,0,0,1-.017-.015l-.025-.021a.045.045,0,0,1-.01-.008l-.017-.013a.1.1,0,0,0-.015-.013c-.015-.013-.029-.025-.042-.038a.345.345,0,0,1-.029-.027c-.013-.01-.023-.023-.036-.034l-.011-.01-.01-.01a.1.1,0,0,0-.015-.015c-.034-.034-.067-.071-.1-.107l-.04-.048,0,0-.006-.008-.006-.01a0,0,0,0,0,0,0l-.019-.029a.68.68,0,0,1-.04-.065c-.006-.01-.013-.021-.019-.034l-.006-.01c0-.006-.006-.01-.008-.017a0,0,0,0,0,0,0,.477.477,0,0,1-.023-.046s0,0,0-.006v0h0a.039.039,0,0,1,0-.015c-.008-.021-.015-.04-.021-.061a.008.008,0,0,0,0-.006l-.013-.04s0-.006,0-.008v-.008s0,0,0,0a.5.5,0,0,1-.011-.055v-.01c0-.013,0-.025,0-.036v-2.6c.1.078.2.151.3.221s.208.132.315.193a1.947,1.947,0,0,0,.33.17l.006,0,.109.05c.017.006.034.015.048.021l.082.036.057.025a11.329,11.329,0,0,0,2.156.649q.744.151,1.5.24l.168.019h0l.053.006c.151.015.3.029.45.042s.286.023.429.032h0l.055,0c.206.013.414.021.62.027a20.752,20.752,0,0,0,3.426-.179.019.019,0,0,0,.011,0c.355-.05.706-.111,1.057-.183a11.384,11.384,0,0,0,2.175-.658c.191-.082.389-.172.58-.277l.011-.006c.013-.008.027-.015.04-.023a4.233,4.233,0,0,0,.4-.256Z" transform="translate(333.899 -97.152)" fill="#fff"/>
    <path id="Path_13" data-name="Path 13" d="M174.8,370.635v2.53c0,.017,0,.032,0,.048s0,.05,0,.076a1.3,1.3,0,0,1-.038.149c-.008.023-.019.046-.025.069,0-.008,0-.015.006-.021s0,.006,0,.008a1.385,1.385,0,0,1-.09.153l-.032.046a.056.056,0,0,0,.011-.013l-.021.025s-.006.01-.011.015-.017.021-.023.023c-.038.042-.076.084-.116.124s-.095.088-.143.13a.952.952,0,0,0-.086.069c-.011.008-.021.015-.029.023a5.021,5.021,0,0,1-.891.5c-.038.017-.08.032-.116.05.032-.017.046-.025.048-.025s-.069.034-.09.042c-.1.04-.2.078-.3.116-.2.071-.4.134-.6.193a13.532,13.532,0,0,1-1.387.322l-.368.063-.17.025-.1.015-.027,0h-.021c-.267.038-.534.065-.8.088a20.93,20.93,0,0,1-3.4.021c-.279-.021-.559-.048-.836-.082l-.177-.021-.05-.006h.011l-.059-.008q-.2-.028-.41-.063c-.479-.08-.954-.179-1.423-.3a10.492,10.492,0,0,1-1.179-.4.007.007,0,0,1,0,0c.063.027-.015,0-.027-.01l.013,0-.055-.025c-.038-.017-.076-.034-.113-.052-.088-.04-.174-.084-.261-.128a4.757,4.757,0,0,1-.425-.248c-.061-.04-.118-.082-.177-.124a.037.037,0,0,0,.015.01c.059.05-.086-.063-.023-.017,0,0,0,0,.006,0l-.015-.013-.095-.08a2.775,2.775,0,0,1-.231-.242l.01.013a.451.451,0,0,1-.036-.04.044.044,0,0,1-.008-.013c-.019-.025-.036-.053-.053-.08s-.046-.084-.067-.128l-.006-.017c-.008-.023-.015-.046-.021-.069s-.013-.046-.017-.069c0-.006,0-.013,0-.019a.445.445,0,0,1,0-.053c0-.034-.011-.059-.011-.09v-.025c0-.046,0-.095,0-.141v-2.354a5.731,5.731,0,0,0,1.524.83c.029.013.061.023.09.036h0c.032.013.063.023.095.034l.046.017.086.032.057.019c.034.013.067.023.1.034.061.021.124.04.185.059.187.059.374.111.563.158s.408.1.612.141h.006c.525.107,1.057.187,1.589.248.387.044.776.078,1.164.1l.116.006c.168.008.336.015.5.019.3.008.605.01.908,0l.111,0h.017c.046,0,.092,0,.139,0l.069,0c.364-.013.727-.034,1.091-.065.332-.029.666-.063,1-.109.3-.04.591-.088.885-.143.311-.059.622-.126.929-.206l.017,0c.252-.067.5-.141.746-.223a7.336,7.336,0,0,0,1.494-.67,3.61,3.61,0,0,0,.422-.292Z" transform="translate(333.953 -198.699)" fill="#fff"/>
  </g>
</svg>
