<svg xmlns="http://www.w3.org/2000/svg" width="57" height="57" viewBox="0 0 57 57">
  <g id="therapists" transform="translate(-361.758 -167.758)">
    <g id="Path_38456" data-name="Path 38456" transform="translate(361.758 167.758)" fill="#eb9852">
      <path d="M 28.5 56.5 C 24.71980094909668 56.5 21.05294990539551 55.75975036621094 17.60128974914551 54.29983139038086 C 14.26712989807129 52.88959884643555 11.27264022827148 50.87062072753906 8.701009750366211 48.29898834228516 C 6.129380226135254 45.72735977172852 4.110410213470459 42.73286819458008 2.700170040130615 39.39870834350586 C 1.240249991416931 35.94704818725586 0.5 32.28020095825195 0.5 28.5 C 0.5 24.71981048583984 1.240249991416931 21.05294990539551 2.700170040130615 17.60128974914551 C 4.110410213470459 14.26712989807129 6.129380226135254 11.27264976501465 8.701009750366211 8.701009750366211 C 11.27264976501465 6.129380226135254 14.26712989807129 4.110410213470459 17.60128974914551 2.700170040130615 C 21.05294990539551 1.240249991416931 24.71981048583984 0.5 28.5 0.5 C 32.28020095825195 0.5 35.94704818725586 1.240249991416931 39.39870834350586 2.700170040130615 C 42.73286819458008 4.110410213470459 45.72735977172852 6.129380226135254 48.29898834228516 8.701009750366211 C 50.87062072753906 11.27264022827148 52.88959884643555 14.26712989807129 54.29983139038086 17.60128974914551 C 55.75975036621094 21.05294990539551 56.5 24.71980094909668 56.5 28.5 C 56.5 32.28020095825195 55.75975036621094 35.94704818725586 54.29983139038086 39.39870834350586 C 52.88959884643555 42.73286819458008 50.87062072753906 45.72735977172852 48.29898834228516 48.29898834228516 C 45.72735977172852 50.87062072753906 42.73286819458008 52.88959884643555 39.39870834350586 54.29983139038086 C 35.94704818725586 55.75975036621094 32.28020095825195 56.5 28.5 56.5 Z" stroke="none"/>
      <path d="M 28.5 1 C 24.78707885742188 1 21.18576049804688 1.726959228515625 17.79605865478516 3.160678863525391 C 14.52149963378906 4.545700073242188 11.58044052124023 6.528690338134766 9.054561614990234 9.054561614990234 C 6.528690338134766 11.58044052124023 4.545700073242188 14.52149963378906 3.160678863525391 17.79605865478516 C 1.726959228515625 21.18576049804688 1 24.78707885742188 1 28.5 C 1 32.21292114257812 1.726959228515625 35.81423950195312 3.160678863525391 39.20394134521484 C 4.545700073242188 42.47850036621094 6.528690338134766 45.41955947875977 9.054561614990234 47.94544219970703 C 11.58044052124023 50.47130966186523 14.52149963378906 52.45429992675781 17.79605865478516 53.83932113647461 C 21.18576049804688 55.27304077148438 24.78707885742188 56 28.5 56 C 32.21292114257812 56 35.81423950195312 55.27304077148438 39.20394134521484 53.83932113647461 C 42.47850036621094 52.45429992675781 45.41955947875977 50.47130966186523 47.94544219970703 47.94544219970703 C 50.47130966186523 45.41955947875977 52.45429992675781 42.47850036621094 53.83932113647461 39.20394134521484 C 55.27304077148438 35.81423950195312 56 32.21292114257812 56 28.5 C 56 24.78707885742188 55.27304077148438 21.18576049804688 53.83932113647461 17.79605865478516 C 52.45429992675781 14.52149963378906 50.47130966186523 11.58044052124023 47.94544219970703 9.054561614990234 C 45.41955947875977 6.528690338134766 42.47850036621094 4.545700073242188 39.20394134521484 3.160678863525391 C 35.81423950195312 1.726959228515625 32.21292114257812 1 28.5 1 M 28.5 0 C 44.24011993408203 0 57 12.75988006591797 57 28.5 C 57 44.24011993408203 44.24011993408203 57 28.5 57 C 12.75988006591797 57 0 44.24011993408203 0 28.5 C 0 12.75988006591797 12.75988006591797 0 28.5 0 Z" stroke="none" fill="#db843a"/>
    </g>
    <g id="Group_8400" data-name="Group 8400" transform="translate(-642.988 938.758)">
      <path id="Path_38456-2" data-name="Path 38456" d="M252.138,40.711a5.118,5.118,0,1,1-6.157-3.8,5.118,5.118,0,0,1,6.157,3.8" transform="translate(786.054 -790.769)" fill="#fff"/>
      <path id="Path_38457" data-name="Path 38457" d="M433.96,386.326A1.038,1.038,0,1,0,435,385.288,1.039,1.039,0,0,0,433.96,386.326Z" transform="translate(603.231 -1122.764)" fill="#fff"/>
      <path id="Path_38458" data-name="Path 38458" d="M146.163,259.64a2.474,2.474,0,0,0-1.145-.349.144.144,0,0,0-.122.229,6.89,6.89,0,0,1,.888,4.946,2.1,2.1,0,1,1-1.035-.267c.175-1.342.012-4.646-1.5-4.51-.586.053-1.265,1.744-3.511,1.744-2.508,0-2.673-1.6-3.424-1.781-1.094-.257-1.583,1.895-1.617,3.352a2.683,2.683,0,0,1,2.125.453c1.435,1.077,1.464,3.5,1.465,3.6a.531.531,0,0,1-.528.534h0a.531.531,0,0,1-.531-.528,3.943,3.943,0,0,0-1.042-2.757,1.844,1.844,0,0,0-1.691-.172,1.877,1.877,0,0,0-1.361,1.049,3.963,3.963,0,0,0,.528,2.9.531.531,0,0,1-.913.542c-.052-.087-1.267-2.163-.6-3.837a2.692,2.692,0,0,1,1.49-1.472,6.245,6.245,0,0,1,1.041-3.788.157.157,0,0,0-.133-.247,2.488,2.488,0,0,0-1.223.353c-1.339.818-4.044,3.335-4.044,10.323,0,.276,0,.542.012.8a1.073,1.073,0,0,0,1.075,1.037h18.757a1.073,1.073,0,0,0,1.075-1.037c.008-.258.012-.524.012-.8,0-6.988-2.705-9.505-4.044-10.323Z" transform="translate(893.469 -1002.737)" fill="#fff"/>
    </g>
  </g>
</svg>
