<svg xmlns="http://www.w3.org/2000/svg" width="16" height="13.333" viewBox="0 0 16 13.333">
  <path id="Therapists-menu" d="M78.333,49.331A1.333,1.333,0,1,1,79.666,48,1.328,1.328,0,0,1,78.333,49.331Zm-3.448,4L76.919,51.3l-.776-.776a.333.333,0,0,1,.471-.471L78.562,52h1.184a.666.666,0,0,0-.1-.805L77.39,48.94a1.334,1.334,0,0,0-1.886,0l-2.838,2.838a1.329,1.329,0,0,0-.236,1.552Zm-4.219,2h7.185a1.32,1.32,0,0,1-.185-.667A1.335,1.335,0,0,1,79,53.331h2.667a.333.333,0,1,1,0,.667H79a.667.667,0,1,0,0,1.333h3a1.333,1.333,0,0,0,0-2.667H77.666A1.333,1.333,0,0,0,76.333,54H70.666a.667.667,0,0,0,0,1.333Zm14,0A1.333,1.333,0,1,0,83.333,54,1.333,1.333,0,0,0,84.666,55.331Zm1,.667H70.333a.333.333,0,0,0-.333.333V57a.333.333,0,0,0,.333.333h.333v2.333A.333.333,0,0,0,71,60H85a.333.333,0,0,0,.333-.333V57.331h.333A.333.333,0,0,0,86,57v-.667A.333.333,0,0,0,85.666,56Z" transform="translate(-70 -46.664)" fill="#fff"/>
</svg>
