<svg xmlns="http://www.w3.org/2000/svg" width="32" height="32" viewBox="0 0 32 32">
  <g id="trash-alt" transform="translate(-331.942 -195.943)">
    <g id="Group_8397" data-name="Group 8397" transform="translate(297.361 186.361)">
      <g id="Rectangle_1734" data-name="Rectangle 1734" transform="translate(34.582 9.582)" fill="#fff" stroke="#e9e9e9" stroke-width="1">
        <rect width="32" height="32" rx="5" stroke="none"/>
        <rect x="0.5" y="0.5" width="31" height="31" rx="4.5" fill="none"/>
      </g>
      <g id="Icon_ionic-ios-trash" data-name="Icon ionic-ios-trash" transform="translate(35.988 12.321)">
        <path id="Path_38595" data-name="Path 38595" d="M9.359,9l1.077,13.265A1.336,1.336,0,0,0,11.772,23.6h6.434a1.336,1.336,0,0,0,1.337-1.337L20.606,9Zm2.811,12.092L11.864,10.46h.844l.315,10.632Zm3.208,0h-.821V10.46h.821Zm2.386,0h-.849l.31-10.632h.844Z" transform="translate(-0.373 -1.58)" fill="#ff4141"/>
        <path id="Path_38596" data-name="Path 38596" d="M19.522,5.778H17.879l-1.2-1.049a.925.925,0,0,0-.6-.228H13.12a.94.94,0,0,0-.611.228l-1.2,1.049H9.666c-.8,0-1.369.383-1.369,1.186H20.891C20.891,6.161,20.325,5.778,19.522,5.778Z" fill="#ff4141"/>
      </g>
    </g>
  </g>
</svg>
