<svg xmlns="http://www.w3.org/2000/svg" width="61.609" height="42.623" viewBox="0 0 61.609 42.623">
  <path id="upload-vector" d="M199.556,162.185a10.657,10.657,0,1,0,10.657,10.657A10.669,10.669,0,0,0,199.556,162.185Zm4.792,12.694-.01.01-3.726-3.729v7.44H198.48v-7.44l-3.718,3.719v-3.011l4.781-4.782,4.8,4.8Zm-5.264-19.787h-.022a7.47,7.47,0,0,0-11.047-6.006,15.271,15.271,0,0,0-28.8,6.587,11.2,11.2,0,0,0,.9,22.373H187.44a13.185,13.185,0,0,1,23.071-12.54,11.477,11.477,0,0,0-11.427-10.415Zm-31.271-5.843c-.087.072-.174.144-.255.223a5.218,5.218,0,0,0-.852,1.018,7.094,7.094,0,0,0-.869,4.714c.188,1.62-2.346,1.6-2.532,0-.348-2.993.609-6.371,3.219-8.133,1.353-.916,2.615,1.263,1.289,2.177Zm-.026.019C167.651,149.379,167.729,149.309,167.786,149.267Z" transform="translate(-148.902 -140.876)" fill="#333"/>
</svg>
