<svg xmlns="http://www.w3.org/2000/svg" width="16.111" height="21.14" viewBox="0 0 16.111 21.14">
  <path id="user-permissions" d="M161.343,22.522h-8.678V18.583a1.833,1.833,0,0,1,1.825-1.825h1.669a1.833,1.833,0,0,1,1.825,1.825,1.38,1.38,0,0,0,2.759,0A4.592,4.592,0,0,0,156.159,14H154.49a4.592,4.592,0,0,0-4.584,4.584V22.5h-.579a2.042,2.042,0,0,0-2.047,2.047v8.545a2.042,2.042,0,0,0,2.047,2.047h12.016a2.042,2.042,0,0,0,2.047-2.047V24.547a2.037,2.037,0,0,0-2.047-2.025Zm-4.651,8.945a.351.351,0,0,1-.334.445h-2.025a.351.351,0,0,1-.334-.445l.668-2.626a1.656,1.656,0,0,1-.957-1.491,1.624,1.624,0,0,1,3.249,0A1.656,1.656,0,0,1,156,28.841Z" transform="translate(-147.28 -13.999)" fill="#fff"/>
</svg>
