<svg xmlns="http://www.w3.org/2000/svg" width="32" height="32" viewBox="0 0 32 32">
  <g id="view-alt" transform="translate(-317.942 -185.943)">
    <g id="Group_8397" data-name="Group 8397" transform="translate(318.361 186.361)">
      <g id="Group_8669" data-name="Group 8669">
        <g id="Path_38590" data-name="Path 38590" transform="translate(-0.418 -0.418)" fill="#fff">
          <path d="M 27 31.5 L 5 31.5 C 2.51869010925293 31.5 0.5 29.48130989074707 0.5 27 L 0.5 5 C 0.5 2.51869010925293 2.51869010925293 0.5 5 0.5 L 27 0.5 C 29.48130989074707 0.5 31.5 2.51869010925293 31.5 5 L 31.5 27 C 31.5 29.48130989074707 29.48130989074707 31.5 27 31.5 Z" stroke="none"/>
          <path d="M 5 1 C 2.794389724731445 1 1 2.794389724731445 1 5 L 1 27 C 1 29.20561027526855 2.794389724731445 31 5 31 L 27 31 C 29.20561027526855 31 31 29.20561027526855 31 27 L 31 5 C 31 2.794389724731445 29.20561027526855 1 27 1 L 5 1 M 5 0 L 27 0 C 29.76141929626465 0 32 2.238580703735352 32 5 L 32 27 C 32 29.76141929626465 29.76141929626465 32 27 32 L 5 32 C 2.238580703735352 32 0 29.76141929626465 0 27 L 0 5 C 0 2.238580703735352 2.238580703735352 0 5 0 Z" stroke="none" fill="#e9e9e9"/>
        </g>
        <g id="Group_8668" data-name="Group 8668" transform="translate(-1003.618 -2837.418)">
          <path id="Path_38592" data-name="Path 38592" d="M134.825,134.735c-.126-.193-3.26-4.815-8.5-4.815s-8.371,4.622-8.5,4.815l-.231.347.231.347c.126.193,3.26,4.815,8.5,4.815,5.258,0,8.371-4.622,8.5-4.815l.231-.347Zm-8.5,3.544a3.21,3.21,0,1,1,3.491-3.2A3.358,3.358,0,0,1,126.328,138.279Zm-6.982-3.2a10.835,10.835,0,0,1,1.746-1.772,9.394,9.394,0,0,1,1.178-.847,4.246,4.246,0,0,0,0,5.239,10.749,10.749,0,0,1-2.923-2.619Zm11.042,2.619a4.246,4.246,0,0,0,0-5.239,9.387,9.387,0,0,1,1.178.847,11.821,11.821,0,0,1,1.746,1.772,10.91,10.91,0,0,1-2.923,2.619Z" transform="translate(892.6 2718.08)" fill="#333"/>
          <path id="Path_38593" data-name="Path 38593" d="M299.934,228.087a1.849,1.849,0,1,1-1.849-1.849,1.849,1.849,0,0,1,1.849,1.849" transform="translate(720.843 2625.075)" fill="#333"/>
        </g>
      </g>
    </g>
  </g>
</svg>
