<svg id="vuesax_bold_buy-crypto" data-name="vuesax/bold/buy-crypto" xmlns="http://www.w3.org/2000/svg" width="18" height="18" viewBox="0 0 18 18">
  <g id="buy-crypto">
    <path id="Vector" d="M5.55,9.69V9.645A6.048,6.048,0,0,0,.022,4.14H0A4.873,4.873,0,1,1,5.55,9.69Z" transform="translate(6.81 1.5)" fill="#fff"/>
    <path id="Vector-2" data-name="Vector" d="M18,0V18H0V0Z" fill="#fff" opacity="0"/>
    <path id="Vector-3" data-name="Vector" d="M0,4.875A4.875,4.875,0,0,1,4.875,0c.128,0,.263.007.39.015a4.882,4.882,0,0,1,4.47,4.47c.007.128.015.263.015.39a4.875,4.875,0,0,1-9.75,0Z" transform="translate(1.5 6.75)" fill="#fff"/>
  </g>
</svg>
