<svg id="category" xmlns="http://www.w3.org/2000/svg" width="18" height="18" viewBox="0 0 18 18">
  <path id="Vector" d="M2.813,7.125A2.536,2.536,0,0,1,0,4.313v-1.5A2.536,2.536,0,0,1,2.813,0h1.5A2.536,2.536,0,0,1,7.125,2.813v1.5A2.536,2.536,0,0,1,4.313,7.125Z" transform="translate(0.938 0.938)" fill="#fff"/>
  <path id="Vector-2" data-name="Vector" d="M2.813,7.125A2.536,2.536,0,0,1,0,4.313v-1.5A2.536,2.536,0,0,1,2.813,0h1.5A2.536,2.536,0,0,1,7.125,2.813v1.5A2.536,2.536,0,0,1,4.313,7.125Z" transform="translate(9.938 0.938)" fill="#fff"/>
  <path id="Vector-3" data-name="Vector" d="M2.813,7.125A2.536,2.536,0,0,1,0,4.313v-1.5A2.536,2.536,0,0,1,2.813,0h1.5A2.536,2.536,0,0,1,7.125,2.813v1.5A2.536,2.536,0,0,1,4.313,7.125Z" transform="translate(9.938 9.938)" fill="#fff"/>
  <path id="Vector-4" data-name="Vector" d="M2.813,7.125A2.536,2.536,0,0,1,0,4.313v-1.5A2.536,2.536,0,0,1,2.813,0h1.5A2.536,2.536,0,0,1,7.125,2.813v1.5A2.536,2.536,0,0,1,4.313,7.125Z" transform="translate(0.938 9.938)" fill="#fff"/>
  <path id="Vector-5" data-name="Vector" d="M18,0V18H0V0Z" fill="#fff" opacity="0"/>
</svg>
