<svg id="Delete" xmlns="http://www.w3.org/2000/svg" xmlns:xlink="http://www.w3.org/1999/xlink" width="14" height="15.556" viewBox="0 0 14 15.556">
  <defs>
    <clipPath id="clip-path">
      <path id="Mask" d="M11.278,15.556H2.723a1.168,1.168,0,0,1-1.167-1.166V3.889H.778a.778.778,0,1,1,0-1.555H3.889V.778A.778.778,0,0,1,4.667,0H9.333a.779.779,0,0,1,.779.778V2.334h3.11a.778.778,0,1,1,0,1.555h-.778v10.5A1.168,1.168,0,0,1,11.278,15.556ZM3.111,3.889V14h7.778V3.889ZM5.444,1.555v.779H8.555V1.555ZM8.555,12.444a.778.778,0,0,1-.778-.778V7A.778.778,0,1,1,9.333,7v4.667A.778.778,0,0,1,8.555,12.444Zm-3.111,0a.778.778,0,0,1-.778-.778V7A.778.778,0,0,1,6.223,7v4.667A.779.779,0,0,1,5.444,12.444Z" transform="translate(5 4)" fill="#222b45"/>
    </clipPath>
  </defs>
  <g id="Group_76" data-name="Group 76" transform="translate(-5 -4)">
    <path id="Mask-2" data-name="Mask" d="M11.278,15.556H2.723a1.168,1.168,0,0,1-1.167-1.166V3.889H.778a.778.778,0,1,1,0-1.555H3.889V.778A.778.778,0,0,1,4.667,0H9.333a.779.779,0,0,1,.779.778V2.334h3.11a.778.778,0,1,1,0,1.555h-.778v10.5A1.168,1.168,0,0,1,11.278,15.556ZM3.111,3.889V14h7.778V3.889ZM5.444,1.555v.779H8.555V1.555ZM8.555,12.444a.778.778,0,0,1-.778-.778V7A.778.778,0,1,1,9.333,7v4.667A.778.778,0,0,1,8.555,12.444Zm-3.111,0a.778.778,0,0,1-.778-.778V7A.778.778,0,0,1,6.223,7v4.667A.779.779,0,0,1,5.444,12.444Z" transform="translate(5 4)" fill="#222b45"/>
  </g>
</svg>
