<svg id="Edit" xmlns="http://www.w3.org/2000/svg" width="13" height="16" viewBox="0 0 13 16">
  <path id="Shape" d="M12.188,16H.815a.8.8,0,1,1,0-1.6H12.188a.8.8,0,1,1,0,1.6ZM.812,12.791a.812.812,0,0,1-.573-.233A.791.791,0,0,1,0,11.916L.353,8.571A1.606,1.606,0,0,1,.815,7.6L8.126.379a1.641,1.641,0,0,1,2.161.056l2.226,2.2a1.527,1.527,0,0,1,.057,2.174L5.259,12.029a1.635,1.635,0,0,1-.983.457l-3.387.305H.812ZM6.5,4.222,1.929,8.707l-.22,2.4,2.437-.225L8.695,6.388ZM9.158,1.558l-1.584,1.6,2.177,2.15,1.624-1.564Z" transform="translate(0 0)" fill="#222b45"/>
</svg>
