<svg xmlns="http://www.w3.org/2000/svg" xmlns:xlink="http://www.w3.org/1999/xlink" width="20" height="20" viewBox="0 0 20 20">
  <defs>
    <clipPath id="clip-path">
      <rect id="icon_Upload_Background_Mask_" data-name="icon / Upload (Background/Mask)" width="20" height="20" transform="translate(0.379 0.114)" fill="none"/>
    </clipPath>
  </defs>
  <g id="icon_Upload" data-name="icon / Upload" transform="translate(-0.379 -0.114)">
    <rect id="icon_Upload_Background_Mask_2" data-name="icon / Upload (Background/Mask)" width="20" height="20" transform="translate(0.379 0.114)" fill="none"/>
    <g id="icon_Upload-2" data-name="icon / Upload" transform="translate(0 0)" clip-path="url(#clip-path)">
      <path id="Vector_Stroke_" data-name="Vector (Stroke)" d="M3.9,0h.82a.659.659,0,0,1,0,1.318H3.9A2.579,2.579,0,0,0,1.318,3.9V8.179A2.578,2.578,0,0,0,3.9,10.756h9.778a2.578,2.578,0,0,0,2.578-2.577V3.887a2.57,2.57,0,0,0-2.569-2.57h-.828a.659.659,0,0,1,0-1.318h.828A3.887,3.887,0,0,1,17.57,3.887V8.179a3.9,3.9,0,0,1-3.9,3.9H3.9A3.9,3.9,0,0,1,0,8.179V3.9A3.9,3.9,0,0,1,3.9,0Z" transform="translate(1.577 6.806)"/>
      <path id="Vector_Stroke_2" data-name="Vector (Stroke)" d="M1.318.659V11.237a.659.659,0,0,1-1.318,0V.659a.659.659,0,0,1,1.318,0Z" transform="translate(9.703 0.838)"/>
      <path id="Vector_Stroke_3" data-name="Vector (Stroke)" d="M3.687.194,6.248,2.766a.659.659,0,1,1-.934.93L3.22,1.593,1.126,3.7a.659.659,0,0,1-.934-.93L2.753.194a.659.659,0,0,1,.934,0Z" transform="translate(7.142 0.838)"/>
    </g>
  </g>
</svg>
