<svg xmlns="http://www.w3.org/2000/svg" id="logout" width="16.799" height="15.47" viewBox="0 0 16.799 15.47">
  <g id="Group_898" data-name="Group 898" transform="translate(14.018 5.959)">
    <g id="Group_897" data-name="Group 897">
      <path id="Path_3587" data-name="Path 3587" d="M429.8,203.732l-1.8-1.279a.492.492,0,0,0-.776.406v2.558a.492.492,0,0,0,.776.406l1.8-1.279A.5.5,0,0,0,429.8,203.732Z" transform="translate(-427.225 -202.361)" fill="#171616"/>
    </g>
  </g>
  <g id="Group_900" data-name="Group 900">
    <g id="Group_899" data-name="Group 899">
      <path id="Path_3588" data-name="Path 3588" d="M14.124,33.328a.49.49,0,0,0-.672.181,6.742,6.742,0,1,1,0-6.741.49.49,0,0,0,.672.181.5.5,0,0,0,.18-.679,7.735,7.735,0,1,0,0,7.736A.5.5,0,0,0,14.124,33.328Z" transform="translate(0 -22.404)" fill="#171616"/>
    </g>
  </g>
  <g id="Group_902" data-name="Group 902" transform="translate(4.895 7.238)">
    <g id="Group_901" data-name="Group 901" transform="translate(0 0)">
      <path id="Path_3589" data-name="Path 3589" d="M149.684,241a.5.5,0,0,0,0,.993h7.646V241Z" transform="translate(-149.192 -241.001)" fill="#171616"/>
    </g>
  </g>
</svg>