<svg xmlns="http://www.w3.org/2000/svg" width="14.764" height="14.913" viewBox="0 0 14.764 14.913">
  <g id="Group_8490" data-name="Group 8490" transform="translate(-14296.271 849)">
    <path id="Path_38421" data-name="Path 38421" d="M214.686,36.252a4.126,4.126,0,1,1,4.126-4.126A4.137,4.137,0,0,1,214.686,36.252Zm0-7.092a2.966,2.966,0,1,0,2.966,2.966A2.963,2.963,0,0,0,214.686,29.16Z" transform="translate(14088.958 -877)"/>
    <path id="Path_38422" data-name="Path 38422" d="M115.566,323.323h-1.16c0-2.867-2.784-5.2-6.214-5.2s-6.23,2.336-6.23,5.2H100.8c0-3.513,3.314-6.363,7.39-6.363s7.374,2.85,7.374,6.363Z" transform="translate(14195.469 -1157.41)"/>
  </g>
</svg>
