<svg id="user-remove" xmlns="http://www.w3.org/2000/svg" width="18" height="18" viewBox="0 0 18 18">
  <path id="Vector" d="M0,5.625A.371.371,0,0,0,.375,6H13.26a.371.371,0,0,0,.375-.375C13.635,2.52,10.575,0,6.818,0S0,2.52,0,5.625Z" transform="translate(2.183 10.5)" fill="#fff"/>
  <path id="Vector-2" data-name="Vector" d="M18,0V18H0V0Z" fill="#fff" opacity="0"/>
  <path id="Vector-3" data-name="Vector" d="M2.85,7.373A3.629,3.629,0,0,1,1.1,6.4,3.747,3.747,0,0,1,1.1,1.1,3.708,3.708,0,0,1,3.953.008,3.723,3.723,0,0,1,6.406,1.1a3.837,3.837,0,0,1,.532.69,3.524,3.524,0,0,1,.45,1.057A3.736,3.736,0,0,1,6.4,6.4a3.619,3.619,0,0,1-2.445,1.08q-.118.01-.236.009A3.523,3.523,0,0,1,2.85,7.373Z" transform="translate(5.25 1.507)" fill="#fff"/>
</svg>
