<svg xmlns="http://www.w3.org/2000/svg" xmlns:xlink="http://www.w3.org/1999/xlink" width="85" height="85" viewBox="0 0 85 85">
  <defs>
    <filter id="Ellipse_5" x="0" y="0" width="85" height="85" filterUnits="userSpaceOnUse">
      <feOffset dy="3" input="SourceAlpha"/>
      <feGaussianBlur stdDeviation="3" result="blur"/>
      <feFlood flood-color="#faf7ea"/>
      <feComposite operator="in" in2="blur"/>
      <feComposite in="SourceGraphic"/>
    </filter>
  </defs>
  <g id="Group_7145" data-name="Group 7145" transform="translate(-775 -114)">
    <g id="Group_7144" data-name="Group 7144" transform="translate(357)">
      <g transform="matrix(1, 0, 0, 1, 418, 114)" filter="url(#Ellipse_5)">
        <g id="Ellipse_5-2" data-name="Ellipse 5" transform="translate(9 6)" fill="#fff" stroke="#faf7ea" stroke-width="1">
          <circle cx="33.5" cy="33.5" r="33.5" stroke="none"/>
          <circle cx="33.5" cy="33.5" r="33" fill="none"/>
        </g>
      </g>
    </g>
    <g id="bold" transform="translate(800 136)">
      <rect id="shop_bold_Background_" data-name="shop/bold (Background)" width="36" height="36" fill="none"/>
      <g id="vuesax_bold_shop" data-name="vuesax/bold/shop" transform="translate(0 0)">
        <g id="shop">
          <path id="Vector" d="M30.749,6.375C30.119,1.845,28.064,0,23.669,0H7.529C3.119,0,1.079,1.845.434,6.42l-.4,4.125a6.166,6.166,0,0,0,1.23,4.38A6.015,6.015,0,0,0,6.1,17.25a6.139,6.139,0,0,0,4.845-2.46,5.722,5.722,0,0,0,9.36.06,6.149,6.149,0,0,0,4.8,2.4,5.973,5.973,0,0,0,4.92-2.445,6.109,6.109,0,0,0,1.155-4.275Z" transform="translate(2.356 1.875)" fill="#eb963d"/>
          <path id="Vector-2" data-name="Vector" d="M0,3.788V7.9a.736.736,0,0,0,.735.735H7.89A.736.736,0,0,0,8.625,7.9V4.313C8.64,1.178,6.8-.307,3.345.053A3.743,3.743,0,0,0,0,3.788Z" transform="translate(13.68 24.937)" fill="#eb963d"/>
          <path id="Vector-3" data-name="Vector" d="M28.11,7.2a7.5,7.5,0,0,1-7.5,7.5.736.736,0,0,1-.735-.735V10.38A5.685,5.685,0,0,0,18.15,5.94a5.821,5.821,0,0,0-4.065-1.365,10.281,10.281,0,0,0-1.155.06,5.228,5.228,0,0,0-4.695,5.22v4.11A.736.736,0,0,1,7.5,14.7,7.5,7.5,0,0,1,0,7.2V2.76A1.5,1.5,0,0,1,2.01,1.35a7.006,7.006,0,0,0,1.23.3,3.488,3.488,0,0,0,.555.06,5.8,5.8,0,0,0,.72.045A7.622,7.622,0,0,0,9.315,0a7.278,7.278,0,0,0,4.74,1.755A7.182,7.182,0,0,0,18.78.03a7.577,7.577,0,0,0,4.74,1.725,6.867,6.867,0,0,0,.8-.045c.18-.015.345-.03.51-.06a7.227,7.227,0,0,0,1.3-.33,1.5,1.5,0,0,1,1.98,1.41Z" transform="translate(3.945 18.87)" fill="#eb963d"/>
          <path id="Vector-4" data-name="Vector" d="M36,0V36H0V0Z" transform="translate(36 36) rotate(180)" fill="#eb963d" opacity="0"/>
        </g>
      </g>
    </g>
  </g>
</svg>
